<svg width="1280" height="326" viewBox="0 0 1280 326" fill="none" xmlns="http://www.w3.org/2000/svg">
<g filter="url(#filter0_d_8829_23993)">
<g clip-path="url(#clip0_8829_23993)">
<ellipse cx="640.5" cy="160.5" rx="497.5" ry="357.5" stroke="#E8E8E8" stroke-linecap="round" stroke-dasharray="6 6"/>
<path d="M920.5 435C1021.59 435 1109.91 380.358 1157.55 299M920.5 -114C1021.38 -114 1109.55 -59.5822 1157.26 21.5M1177.18 258C1186.1 234.537 1191.89 209.534 1194.05 183.5M1194.17 139C1192.15 112.981 1186.51 87.9794 1177.75 64.5" stroke="#E8E8E8" stroke-linecap="round" stroke-dasharray="6 6"/>
<path d="M362.17 435C261.083 435 172.758 380.358 125.121 299M362.17 -114C261.29 -114 173.121 -59.5822 125.414 21.5M105.49 258C96.5722 234.537 90.7795 209.534 88.6198 183.5M88.4995 139C90.5153 112.981 96.1587 87.9794 104.925 64.5" stroke="#E8E8E8" stroke-linecap="round" stroke-dasharray="6 6"/>
<g opacity="0.75">
<path d="M1153 42C1153 34.268 1159.27 28 1167 28H1171C1178.73 28 1185 34.268 1185 42V46C1185 53.732 1178.73 60 1171 60H1167C1159.27 60 1153 53.732 1153 46V42Z" fill="#D152C5" fill-opacity="0.1"/>
<path opacity="0.6" d="M1160.67 39.832H1163.17M1177.33 39.832H1168.17" stroke="#BF33B2" stroke-width="1.25" stroke-linecap="round"/>
<path opacity="0.6" d="M1177.33 48.168H1174.83M1160.67 48.168H1169.83" stroke="#BF33B2" stroke-width="1.25" stroke-linecap="round"/>
<path d="M1164.85 42.195C1164.05 42.0633 1163.44 41.4441 1163.3 40.6539V40.6539C1163.21 40.1098 1163.21 39.5543 1163.3 39.0101V39.0101C1163.44 38.2199 1164.05 37.6007 1164.85 37.469V37.469C1165.39 37.3783 1165.94 37.3783 1166.49 37.469V37.469C1167.28 37.6007 1167.9 38.2199 1168.03 39.0101V39.0101C1168.12 39.5543 1168.12 40.1098 1168.03 40.6539V40.6539C1167.9 41.4441 1167.28 42.0633 1166.49 42.195V42.195C1165.94 42.2857 1165.39 42.2857 1164.85 42.195V42.195Z" stroke="#BF33B2" stroke-width="1.25"/>
<path d="M1171.51 50.531C1170.72 50.3993 1170.1 49.7801 1169.97 48.9899V48.9899C1169.88 48.4457 1169.88 47.8902 1169.97 47.3461V47.3461C1170.1 46.5559 1170.72 45.9367 1171.51 45.805V45.805C1172.06 45.7143 1172.61 45.7143 1173.15 45.805V45.805C1173.95 45.9367 1174.56 46.5559 1174.7 47.3461V47.3461C1174.79 47.8902 1174.79 48.4457 1174.7 48.9899V48.9899C1174.56 49.7801 1173.95 50.3993 1173.15 50.531V50.531C1172.61 50.6217 1172.06 50.6217 1171.51 50.531V50.531Z" stroke="#BF33B2" stroke-width="1.25"/>
</g>
<g opacity="0.75">
<path d="M1153 276C1153 268.268 1159.27 262 1167 262H1171C1178.73 262 1185 268.268 1185 276V280C1185 287.732 1178.73 294 1171 294H1167C1159.27 294 1153 287.732 1153 280V276Z" fill="#D152C5" fill-opacity="0.1"/>
<path d="M1177.33 286.335L1174.42 283.418" stroke="#BF33B2" stroke-width="1.25" stroke-linecap="round"/>
<circle cx="1168.58" cy="277.585" r="7.91667" stroke="#BF33B2" stroke-width="1.25"/>
<path opacity="0.6" d="M1164.42 279.844L1166.64 277.622C1166.79 277.466 1167.05 277.459 1167.21 277.606L1168.29 278.572C1168.45 278.719 1168.71 278.712 1168.86 278.556L1171.08 276.334" stroke="#BF33B2" stroke-width="1.25" stroke-linecap="round" stroke-linejoin="round"/>
<path opacity="0.6" d="M1169.42 275.5L1171.5 275.5C1171.73 275.5 1171.92 275.687 1171.92 275.917L1171.92 278" stroke="#BF33B2" stroke-width="1.25" stroke-linecap="round"/>
</g>
<g opacity="0.75">
<path d="M1179 159C1179 151.268 1185.27 145 1193 145H1197C1204.73 145 1211 151.268 1211 159V163C1211 170.732 1204.73 177 1197 177H1193C1185.27 177 1179 170.732 1179 163V159Z" fill="#70D6D1" fill-opacity="0.1"/>
<path d="M1188.97 168.961C1188.66 169.164 1188.27 169.189 1187.95 169.025L1187.87 168.989C1187.5 168.802 1187.2 168.498 1187.01 168.124L1186.97 168.052C1186.81 167.724 1186.83 167.334 1187.04 167.029V167.029C1187.6 166.187 1188.32 165.465 1189.16 164.904V164.904C1189.47 164.701 1189.86 164.677 1190.19 164.841L1190.26 164.877C1190.63 165.064 1190.93 165.367 1191.12 165.741L1191.16 165.813C1191.32 166.141 1191.3 166.532 1191.09 166.837V166.837C1190.53 167.678 1189.81 168.4 1188.97 168.961V168.961Z" stroke="#4ACCC5" stroke-width="1.25"/>
<path opacity="0.6" d="M1198.33 157.668L1190.83 165.168" stroke="#4ACCC5" stroke-width="1.25" stroke-linecap="round"/>
<path d="M1198.33 152.668V154.335" stroke="#4ACCC5" stroke-width="1.25" stroke-linecap="round"/>
<path d="M1198.33 161V162.667" stroke="#4ACCC5" stroke-width="1.25" stroke-linecap="round"/>
<path d="M1193.33 157.668L1195 157.668" stroke="#4ACCC5" stroke-width="1.25" stroke-linecap="round"/>
<path d="M1201.67 157.668L1203.33 157.668" stroke="#4ACCC5" stroke-width="1.25" stroke-linecap="round"/>
<path d="M1200.69 155.309L1201.87 154.13" stroke="#4ACCC5" stroke-width="1.25" stroke-linecap="round"/>
<path d="M1201.87 161.203L1200.69 160.025" stroke="#4ACCC5" stroke-width="1.25" stroke-linecap="round"/>
<path d="M1195.98 155.309L1194.8 154.13" stroke="#4ACCC5" stroke-width="1.25" stroke-linecap="round"/>
</g>
<g opacity="0.75">
<path d="M99 42C99 34.268 105.268 28 113 28H117C124.732 28 131 34.268 131 42V46C131 53.732 124.732 60 117 60H113C105.268 60 99 53.732 99 46V42Z" fill="#80ACE5" fill-opacity="0.1"/>
<path d="M111.141 51.9667C109.034 51.6155 107.383 49.9643 107.032 47.8571V47.8571C106.79 46.406 106.79 44.9248 107.032 43.4736V43.4736C107.383 41.3664 109.034 39.7152 111.141 39.364V39.364C112.593 39.1221 114.074 39.1221 115.525 39.364V39.364C117.632 39.7152 119.283 41.3664 119.635 43.4736V43.4736C119.876 44.9248 119.876 46.406 119.635 47.8571V47.8571C119.283 49.9643 117.632 51.6155 115.525 51.9667V51.9667C114.074 52.2086 112.593 52.2086 111.141 51.9667V51.9667Z" stroke="#5791DD" stroke-width="1.25"/>
<path opacity="0.6" d="M120 46.8759C121.561 46.3904 122.74 45.0631 123.014 43.4184C123.226 42.1486 123.226 40.8525 123.014 39.5827C122.707 37.739 121.262 36.2941 119.418 35.9868C118.148 35.7752 116.852 35.7752 115.583 35.9868C113.938 36.261 112.611 37.4403 112.125 39.0005" stroke="#5791DD" stroke-width="1.25" stroke-linecap="round"/>
<path d="M114.885 44.0365C114.843 44.0129 114.809 43.9784 114.785 43.9369V43.9369C114.66 43.7181 114.66 43.4489 114.785 43.2302V43.2302C114.809 43.1888 114.843 43.1546 114.885 43.1309V43.1309C115.104 43.0058 115.373 43.0058 115.592 43.1309V43.1309C115.633 43.1545 115.667 43.1888 115.691 43.2301V43.2301C115.816 43.4488 115.816 43.7179 115.691 43.9369V43.9369C115.668 43.9784 115.633 44.0128 115.592 44.0365V44.0365C115.373 44.1616 115.104 44.1616 114.885 44.0365V44.0365Z" stroke="#5791DD" stroke-width="1.25"/>
<path d="M111.075 48.2043C111.034 48.1807 110.999 48.1462 110.976 48.1047V48.1047C110.851 47.8859 110.851 47.6167 110.976 47.398V47.398C110.999 47.3566 111.034 47.3224 111.075 47.2988V47.2988C111.294 47.1736 111.563 47.1736 111.782 47.2987V47.2987C111.823 47.3223 111.858 47.3566 111.881 47.3979V47.3979C112.007 47.6166 112.006 47.8858 111.882 48.1047V48.1047C111.858 48.1462 111.823 48.1806 111.782 48.2043V48.2043C111.563 48.3294 111.294 48.3294 111.075 48.2043V48.2043Z" stroke="#5791DD" stroke-width="1.25"/>
</g>
<g opacity="0.75">
<path d="M99 276C99 268.268 105.268 262 113 262H117C124.732 262 131 268.268 131 276V280C131 287.732 124.732 294 117 294H113C105.268 294 99 287.732 99 280V276Z" fill="#80ACE5" fill-opacity="0.1"/>
<g clip-path="url(#clip1_8829_23993)">
<path d="M118.491 270.056C120.851 270.318 122.735 272.144 123.07 274.494C123.245 275.715 123.245 276.954 123.07 278.175C122.735 280.526 120.851 282.351 118.491 282.613L117.805 282.689C116.483 282.836 115.152 282.879 113.825 282.818C113.522 282.804 113.232 282.949 113.068 283.205L111.536 285.601C111.087 286.303 110 285.985 110 285.152V282.756C110 282.425 109.801 282.13 109.513 281.967C108.144 281.189 107.163 279.809 106.93 278.175C106.755 276.954 106.755 275.715 106.93 274.494C107.265 272.144 109.149 270.318 111.509 270.056L112.195 269.98C114.059 269.772 115.941 269.772 117.805 269.98L118.491 270.056Z" stroke="#5791DD" stroke-width="1.25"/>
<path opacity="0.6" d="M111.667 274.668L118.334 274.668" stroke="#5791DD" stroke-width="1.25" stroke-linecap="round"/>
<path opacity="0.6" d="M111.667 278L115.834 278" stroke="#5791DD" stroke-width="1.25" stroke-linecap="round"/>
</g>
</g>
<g opacity="0.75">
<path d="M70 159C70 151.268 76.268 145 84 145H88C95.732 145 102 151.268 102 159V163C102 170.732 95.732 177 88 177H84C76.268 177 70 170.732 70 163V159Z" fill="#9FCA63" fill-opacity="0.1"/>
<path d="M86.0182 152.668C86.0182 156.001 80.9998 161.001 77.6665 161.001C80.9998 161.001 86.0182 166.001 86.0182 169.335C86.0182 166.001 90.9998 161.001 94.3332 161.001C90.9998 161.001 86.0182 156.001 86.0182 152.668Z" stroke="#87BA40" stroke-width="1.25" stroke-linecap="round" stroke-linejoin="round"/>
<path opacity="0.6" d="M79.7544 152.668C79.7544 153.501 78.4998 154.751 77.6665 154.751C78.4998 154.751 79.7544 156.001 79.7544 156.835C79.7544 156.001 80.9998 154.751 81.8332 154.751C80.9998 154.751 79.7544 153.501 79.7544 152.668Z" stroke="#87BA40" stroke-width="1.25" stroke-linecap="round" stroke-linejoin="round"/>
</g>
</g>
</g>
<defs>
<filter id="filter0_d_8829_23993" x="-16" y="0" width="1312" height="326" filterUnits="userSpaceOnUse" color-interpolation-filters="sRGB">
<feFlood flood-opacity="0" result="BackgroundImageFix"/>
<feColorMatrix in="SourceAlpha" type="matrix" values="0 0 0 0 0 0 0 0 0 0 0 0 0 0 0 0 0 0 127 0" result="hardAlpha"/>
<feOffset dy="3"/>
<feGaussianBlur stdDeviation="8"/>
<feComposite in2="hardAlpha" operator="out"/>
<feColorMatrix type="matrix" values="0 0 0 0 0 0 0 0 0 0 0 0 0 0 0 0 0 0 0.05 0"/>
<feBlend mode="normal" in2="BackgroundImageFix" result="effect1_dropShadow_8829_23993"/>
<feBlend mode="normal" in="SourceGraphic" in2="effect1_dropShadow_8829_23993" result="shape"/>
</filter>
<clipPath id="clip0_8829_23993">
<path d="M0 41C0 25.536 12.536 13 28 13H1252C1267.46 13 1280 25.536 1280 41V279C1280 294.464 1267.46 307 1252 307H28C12.5361 307 0 294.464 0 279V41Z" fill="white"/>
</clipPath>
<clipPath id="clip1_8829_23993">
<rect width="20" height="20" fill="white" transform="translate(105 268)"/>
</clipPath>
</defs>
</svg>
