<svg width="800" height="440" viewBox="0 0 800 440" fill="none" xmlns="http://www.w3.org/2000/svg">
<g clip-path="url(#clip0_6569_23175)">
<circle cx="400.5" cy="220.5" r="209.5" stroke="#4A4A4A" stroke-linecap="round" stroke-dasharray="6 6"/>
<path d="M400.5 495C501.587 495 589.912 440.358 637.549 359M400.5 -54C501.38 -54 589.549 0.417816 637.256 81.5M657.18 318C666.098 294.537 671.89 269.534 674.05 243.5M674.17 199C672.155 172.981 666.511 147.979 657.745 124.5" stroke="#545454" stroke-linecap="round" stroke-dasharray="6 6"/>
<path d="M402.17 495C301.083 495 212.758 440.358 165.121 359M402.17 -54C301.29 -54 213.121 0.417816 165.414 81.5M145.49 318C136.572 294.537 130.779 269.534 128.62 243.5M128.5 199C130.515 172.981 136.159 147.979 144.925 124.5" stroke="#545454" stroke-linecap="round" stroke-dasharray="6 6"/>
<g opacity="0.75">
<rect x="633" y="88" width="32" height="32" rx="14" fill="#DF6D86" fill-opacity="0.1"/>
<path d="M651.486 95.9433C654.417 96.269 656.731 98.5827 657.057 101.514V101.514C657.24 103.166 657.24 104.834 657.057 106.487V106.487C656.731 109.418 654.417 111.732 651.486 112.057V112.057C649.834 112.241 648.166 112.241 646.513 112.057V112.057C643.582 111.732 641.268 109.418 640.943 106.487V106.487C640.759 104.834 640.759 103.166 640.943 101.514V101.514C641.268 98.5827 643.582 96.269 646.513 95.9433V95.9433C648.166 95.7597 649.834 95.7597 651.486 95.9433V95.9433Z" stroke="#D64565" stroke-width="1.25"/>
<path opacity="0.6" d="M649 100.667V104.834" stroke="#D64565" stroke-width="1.25" stroke-linecap="round"/>
<path opacity="0.6" d="M649 106.917V107.334" stroke="#D64565" stroke-width="1.25" stroke-linecap="round"/>
</g>
<g opacity="0.75">
<rect x="633" y="322" width="32" height="32" rx="14" fill="#DF6D86" fill-opacity="0.1"/>
<path d="M653.044 337.517L653.566 337.094C653.947 336.786 654.095 336.274 653.938 335.811C653.815 335.445 653.62 335.108 653.365 334.818C653.042 334.45 652.524 334.323 652.068 334.498L651.441 334.74L651.375 334.765C651.043 334.894 650.671 334.688 650.616 334.336L650.499 333.593C650.422 333.11 650.053 332.725 649.573 332.629C649.195 332.553 648.805 332.553 648.427 332.629C647.947 332.725 647.578 333.11 647.502 333.593L647.384 334.336C647.329 334.688 646.958 334.894 646.625 334.765L646.559 334.74L645.932 334.498C645.476 334.323 644.958 334.45 644.635 334.818C644.38 335.108 644.185 335.445 644.062 335.811C643.905 336.274 644.053 336.786 644.434 337.094L644.956 337.517L645.002 337.554C645.286 337.782 645.286 338.218 645.002 338.446L644.956 338.483L644.434 338.906C644.054 339.214 643.905 339.726 644.062 340.189C644.185 340.555 644.38 340.892 644.635 341.182C644.958 341.549 645.476 341.677 645.932 341.501L646.56 341.26L646.625 341.235C646.958 341.106 647.329 341.312 647.384 341.664L647.502 342.408C647.578 342.891 647.947 343.276 648.427 343.372C648.805 343.447 649.195 343.447 649.573 343.372C650.053 343.276 650.422 342.891 650.499 342.408L650.616 341.664C650.672 341.312 651.043 341.106 651.375 341.235L651.44 341.26L652.068 341.501C652.524 341.677 653.042 341.549 653.365 341.182C653.62 340.892 653.815 340.555 653.938 340.189C654.095 339.726 653.946 339.214 653.566 338.906L653.044 338.483L652.998 338.446C652.714 338.218 652.714 337.782 652.998 337.554L653.044 337.517Z" stroke="#D64565" stroke-width="1.25"/>
<path opacity="0.6" d="M655.667 332.999L655.667 334.666C655.667 335.586 654.921 336.333 654 336.333M655.667 342.999L655.667 341.333C655.667 340.412 654.921 339.666 654 339.666M655.667 342.999C656.587 342.999 657.334 343.746 657.334 344.666C657.334 345.587 656.587 346.333 655.667 346.333C654.747 346.333 654 345.587 654 344.666C654 343.746 654.747 342.999 655.667 342.999ZM642.334 342.999L642.334 341.333C642.334 340.412 643.08 339.666 644 339.666M642.334 342.999C643.254 342.999 644 343.746 644 344.666C644 345.587 643.254 346.333 642.334 346.333C641.413 346.333 640.667 345.587 640.667 344.666C640.667 343.746 641.413 342.999 642.334 342.999ZM642.334 332.999L642.334 334.666C642.334 335.586 643.08 336.333 644 336.333M642.334 332.999C641.413 332.999 640.667 332.253 640.667 331.333C640.667 330.412 641.413 329.666 642.334 329.666C643.254 329.666 644 330.412 644 331.333C644 332.253 643.254 332.999 642.334 332.999ZM655.667 332.999V332.999C656.587 332.999 657.334 332.253 657.334 331.333V331.333C657.334 330.412 656.587 329.666 655.667 329.666V329.666C654.747 329.666 654 330.412 654 331.333V331.333C654 332.253 654.747 332.999 655.667 332.999Z" stroke="#D64565" stroke-width="1.25" stroke-linecap="round" stroke-linejoin="round"/>
</g>
<g opacity="0.75">
<rect x="659" y="205" width="32" height="32" rx="14" fill="#F1A874" fill-opacity="0.1"/>
<path d="M667.808 218.227C668.116 215.455 670.325 213.251 673.092 212.905V212.905C674.348 212.748 675.652 212.748 676.908 212.905V212.905C679.675 213.251 681.884 215.455 682.192 218.227V218.227C682.397 220.07 682.397 221.931 682.192 223.774V223.774C681.884 226.546 679.675 228.749 676.908 229.095V229.095C675.652 229.252 674.348 229.252 673.092 229.095V229.095C670.325 228.749 668.116 226.546 667.808 223.774V223.774C667.603 221.931 667.603 220.07 667.808 218.227V218.227Z" stroke="#EC8A44" stroke-width="1.25"/>
<path opacity="0.6" d="M673.333 219.333L675 221M675 221L676.666 222.666M675 221L676.666 219.333M675 221L673.333 222.666" stroke="#EC8A44" stroke-width="1.25" stroke-linecap="round"/>
</g>
<g opacity="0.75">
<rect width="32" height="32" rx="14" transform="matrix(-1 0 0 1 171 88)" fill="#F1A874" fill-opacity="0.1"/>
<path d="M161.655 100.53C162.445 100.398 163.064 99.7791 163.196 98.9889V98.9889C163.287 98.4447 163.287 97.8893 163.196 97.3451V97.3451C163.064 96.5549 162.445 95.9357 161.655 95.804V95.804C161.111 95.7133 160.555 95.7133 160.011 95.804V95.804C159.221 95.9357 158.602 96.5549 158.47 97.3451V97.3451C158.379 97.8893 158.379 98.4447 158.47 98.9889V98.9889C158.602 99.7791 159.221 100.398 160.011 100.53V100.53C160.555 100.621 161.111 100.621 161.655 100.53V100.53Z" stroke="#EC8A44" stroke-width="1.25"/>
<path d="M161.655 112.196C162.445 112.064 163.064 111.445 163.196 110.655V110.655C163.287 110.111 163.287 109.555 163.196 109.011V109.011C163.064 108.221 162.445 107.602 161.655 107.47V107.47C161.111 107.379 160.555 107.379 160.011 107.47V107.47C159.221 107.602 158.602 108.221 158.47 109.011V109.011C158.379 109.555 158.379 110.111 158.47 110.655V110.655C158.602 111.445 159.221 112.064 160.011 112.196V112.196C160.555 112.287 161.111 112.287 161.655 112.196V112.196Z" stroke="#EC8A44" stroke-width="1.25"/>
<path d="M149.989 112.196C150.779 112.064 151.398 111.445 151.53 110.655V110.655C151.621 110.111 151.621 109.555 151.53 109.011V109.011C151.398 108.221 150.779 107.602 149.989 107.47V107.47C149.445 107.379 148.889 107.379 148.345 107.47V107.47C147.555 107.602 146.936 108.221 146.804 109.011V109.011C146.713 109.555 146.713 110.111 146.804 110.655V110.655C146.936 111.445 147.555 112.064 148.345 112.196V112.196C148.889 112.287 149.445 112.287 149.989 112.196V112.196Z" stroke="#EC8A44" stroke-width="1.25"/>
<path opacity="0.6" d="M160.833 100.666L160.833 107.333" stroke="#EC8A44" stroke-width="1.25" stroke-linecap="round"/>
<path opacity="0.6" d="M149.167 103.166L149.167 107.333" stroke="#EC8A44" stroke-width="1.25" stroke-linecap="round"/>
<path opacity="0.6" d="M150.834 96.4997L147.5 99.8331M147.5 96.4997L150.834 99.8331" stroke="#EC8A44" stroke-width="1.25" stroke-linecap="round"/>
</g>
<g opacity="0.75">
<rect width="32" height="32" rx="14" transform="matrix(-1 0 0 1 171 322)" fill="#F1A874" fill-opacity="0.1"/>
<g clip-path="url(#clip1_6569_23175)">
<path d="M151.509 330.055C149.149 330.317 147.265 332.143 146.93 334.493C146.755 335.714 146.755 336.953 146.93 338.174C147.265 340.525 149.149 342.35 151.509 342.612L152.195 342.689C153.517 342.835 154.848 342.878 156.175 342.817C156.478 342.803 156.768 342.948 156.932 343.204L158.464 345.6C158.913 346.302 160 345.984 160 345.151V342.755C160 342.424 160.199 342.129 160.487 341.966C161.856 341.188 162.837 339.808 163.07 338.174C163.245 336.953 163.245 335.714 163.07 334.493C162.735 332.143 160.851 330.317 158.491 330.055L157.805 329.979C155.941 329.771 154.059 329.771 152.195 329.979L151.509 330.055Z" stroke="#EC8A44" stroke-width="1.25"/>
<path opacity="0.6" d="M156.667 334.667L155 336.334M155 336.334L153.334 338M155 336.334L153.334 334.667M155 336.334L156.667 338" stroke="#EC8A44" stroke-width="1.25" stroke-linecap="round"/>
</g>
</g>
<g opacity="0.75">
<rect width="32" height="32" rx="14" transform="matrix(-1 0 0 1 142 205)" fill="#DF6D86" fill-opacity="0.1"/>
<path d="M121.811 225.889C122.082 227.246 123.06 228.354 124.374 228.792V228.792C125.429 229.144 126.571 229.144 127.626 228.792V228.792C128.94 228.354 129.918 227.246 130.189 225.889L130.295 225.358C130.76 223.032 130.76 220.636 130.295 218.31L130.189 217.779C129.918 216.422 128.94 215.314 127.626 214.876V214.876C126.571 214.524 125.429 214.524 124.374 214.876V214.876C123.06 215.314 122.082 216.422 121.811 217.779L121.705 218.31C121.24 220.636 121.24 223.032 121.705 225.358L121.811 225.889Z" stroke="#D64565" stroke-width="1.25"/>
<path opacity="0.6" d="M123.5 214.749L122.667 212.666" stroke="#D64565" stroke-width="1.25" stroke-linecap="round"/>
<path opacity="0.6" d="M128.5 214.749L129.333 212.666" stroke="#D64565" stroke-width="1.25" stroke-linecap="round"/>
<path opacity="0.6" d="M127.25 219.333L127.667 218.5" stroke="#D64565" stroke-width="1.25" stroke-linecap="round"/>
<path opacity="0.6" d="M124.75 219.333L124.333 218.5" stroke="#D64565" stroke-width="1.25" stroke-linecap="round"/>
<path opacity="0.6" d="M130.167 217.667L132.667 216.834" stroke="#D64565" stroke-width="1.25" stroke-linecap="round"/>
<path opacity="0.6" d="M121.833 217.667L119.333 216.834" stroke="#D64565" stroke-width="1.25" stroke-linecap="round"/>
<path opacity="0.6" d="M131 221.834H133.5" stroke="#D64565" stroke-width="1.25" stroke-linecap="round"/>
<path opacity="0.6" d="M121 221.834H118.5" stroke="#D64565" stroke-width="1.25" stroke-linecap="round"/>
<path opacity="0.6" d="M130.167 226.001L132.667 226.834" stroke="#D64565" stroke-width="1.25" stroke-linecap="round"/>
<path opacity="0.6" d="M121.833 226.001L119.333 226.834" stroke="#D64565" stroke-width="1.25" stroke-linecap="round"/>
</g>
</g>
<defs>
<clipPath id="clip0_6569_23175">
<path d="M0 32C0 14.3269 14.3269 0 32 0H768C785.673 0 800 14.3269 800 32V408C800 425.673 785.673 440 768 440H32C14.3269 440 0 425.673 0 408V32Z" fill="white"/>
</clipPath>
<clipPath id="clip1_6569_23175">
<rect width="20" height="20" fill="white" transform="matrix(-1 0 0 1 165 328)"/>
</clipPath>
</defs>
</svg>
