<svg width="1017" height="294" viewBox="0 0 1017 294" fill="none" xmlns="http://www.w3.org/2000/svg">
<g clip-path="url(#clip0_6556_17821)">
<circle cx="508.5" cy="147.5" r="209.5" stroke="#404040" stroke-linecap="round" stroke-dasharray="6 6"/>
<path d="M508.5 422C609.587 422 697.912 367.358 745.549 286M508.5 -127C609.38 -127 697.549 -72.5822 745.256 8.5M765.18 245C774.098 221.537 779.89 196.534 782.05 170.5M782.17 126C780.155 99.9811 774.511 74.9794 765.745 51.5" stroke="#404040" stroke-linecap="round" stroke-dasharray="6 6"/>
<path d="M510.17 422C409.083 422 320.758 367.358 273.121 286M510.17 -127C409.29 -127 321.121 -72.5822 273.414 8.5M253.49 245C244.572 221.537 238.779 196.534 236.62 170.5M236.5 126C238.515 99.9811 244.159 74.9794 252.925 51.5" stroke="#404040" stroke-linecap="round" stroke-dasharray="6 6"/>
<g opacity="0.75">
<rect x="741" y="15" width="32" height="32" rx="14" fill="#1FD6FF" fill-opacity="0.1"/>
<path opacity="0.6" d="M757 39.333L757 31.833M757 22.6663L757 25.1663" stroke="#00C1EC" stroke-width="1.25" stroke-linecap="round"/>
<path opacity="0.6" d="M762.833 39.333L762.833 35.1663M762.833 22.6663L762.833 30.1663" stroke="#00C1EC" stroke-width="1.25" stroke-linecap="round"/>
<path opacity="0.6" d="M751.167 39.333L751.167 36.833M751.167 22.6663L751.167 31.833" stroke="#00C1EC" stroke-width="1.25" stroke-linecap="round"/>
<path d="M752.482 36.1389C752.442 36.3456 752.289 36.5123 752.086 36.5702L751.859 36.6352C751.406 36.7645 750.927 36.7645 750.474 36.6352L750.247 36.5702C750.044 36.5123 749.891 36.3456 749.851 36.1389L749.845 36.1056C749.617 34.9351 749.62 33.7315 749.854 32.5623V32.5623C749.893 32.369 750.032 32.2112 750.219 32.1489L750.41 32.0851C750.901 31.9215 751.432 31.9215 751.923 32.0851L752.114 32.1489C752.301 32.2112 752.44 32.369 752.479 32.5623V32.5623C752.713 33.7315 752.716 34.9351 752.489 36.1056L752.482 36.1389Z" stroke="#00C1EC" stroke-width="1.25"/>
<path d="M758.333 30.8829C758.283 31.2434 758.024 31.5403 757.674 31.6404V31.6404C757.234 31.7663 756.766 31.7663 756.326 31.6403V31.6403C755.976 31.5403 755.718 31.2434 755.667 30.8829L755.657 30.8114C755.442 29.2779 755.445 27.7218 755.664 26.1889L755.674 26.1179C755.72 25.7901 755.949 25.5169 756.263 25.4121V25.4121C756.741 25.2526 757.259 25.2526 757.737 25.4121V25.4121C758.052 25.5168 758.28 25.7901 758.327 26.118L758.337 26.1889C758.556 27.7218 758.558 29.2779 758.343 30.8114L758.333 30.8829Z" stroke="#00C1EC" stroke-width="1.25"/>
<path d="M764.194 34.2407C764.126 34.5899 763.868 34.8714 763.526 34.9691V34.9691C763.073 35.0985 762.593 35.0985 762.141 34.9691V34.9691C761.799 34.8714 761.541 34.5899 761.473 34.2407L761.359 33.6561C761.232 33.003 761.234 32.3313 761.364 31.6789L761.481 31.094C761.544 30.7784 761.772 30.5209 762.077 30.4191V30.4191C762.568 30.2554 763.099 30.2555 763.59 30.4191V30.4191C763.895 30.5208 764.122 30.7784 764.185 31.094L764.302 31.6789C764.433 32.3313 764.435 33.003 764.308 33.6561L764.194 34.2407Z" stroke="#00C1EC" stroke-width="1.25"/>
</g>
<g opacity="0.75">
<rect x="741" y="249" width="32" height="32" rx="14" fill="#1FD6FF" fill-opacity="0.1"/>
<path d="M761.044 264.517L761.566 264.094C761.947 263.786 762.095 263.274 761.938 262.811C761.815 262.445 761.62 262.108 761.365 261.818C761.042 261.45 760.524 261.323 760.068 261.498L759.441 261.74L759.375 261.765C759.043 261.894 758.671 261.688 758.616 261.336L758.499 260.593C758.422 260.11 758.053 259.725 757.573 259.629C757.195 259.553 756.805 259.553 756.427 259.629C755.947 259.725 755.578 260.11 755.502 260.593L755.384 261.336C755.329 261.688 754.958 261.894 754.625 261.765L754.559 261.74L753.932 261.498C753.476 261.323 752.958 261.45 752.635 261.818C752.38 262.108 752.185 262.445 752.062 262.811C751.905 263.274 752.053 263.786 752.434 264.094L752.956 264.517L753.002 264.554C753.286 264.782 753.286 265.218 753.002 265.446L752.956 265.483L752.434 265.906C752.054 266.214 751.905 266.726 752.062 267.189C752.185 267.555 752.38 267.892 752.635 268.182C752.958 268.549 753.476 268.677 753.932 268.501L754.56 268.26L754.625 268.235C754.958 268.106 755.329 268.312 755.384 268.664L755.502 269.408C755.578 269.891 755.947 270.276 756.427 270.372C756.805 270.447 757.195 270.447 757.573 270.372C758.053 270.276 758.422 269.891 758.499 269.408L758.616 268.664C758.672 268.312 759.043 268.106 759.375 268.235L759.44 268.26L760.068 268.501C760.524 268.677 761.042 268.549 761.365 268.182C761.62 267.892 761.815 267.555 761.938 267.189C762.095 266.726 761.946 266.214 761.566 265.906L761.044 265.483L760.998 265.446C760.714 265.218 760.714 264.782 760.998 264.554L761.044 264.517Z" stroke="#00C1EC" stroke-width="1.25"/>
<path opacity="0.6" d="M763.667 259.999L763.667 261.666C763.667 262.586 762.92 263.333 762 263.333M763.667 269.999L763.667 268.333C763.667 267.412 762.92 266.666 762 266.666M763.667 269.999C764.587 269.999 765.333 270.746 765.333 271.666C765.333 272.587 764.587 273.333 763.667 273.333C762.746 273.333 762 272.587 762 271.666C762 270.746 762.746 269.999 763.667 269.999ZM750.333 269.999L750.333 268.333C750.333 267.412 751.079 266.666 752 266.666M750.333 269.999C751.254 269.999 752 270.746 752 271.666C752 272.587 751.254 273.333 750.333 273.333C749.413 273.333 748.667 272.587 748.667 271.666C748.667 270.746 749.413 269.999 750.333 269.999ZM750.333 259.999L750.333 261.666C750.333 262.586 751.079 263.333 752 263.333M750.333 259.999C749.413 259.999 748.667 259.253 748.667 258.333C748.667 257.412 749.413 256.666 750.333 256.666C751.254 256.666 752 257.412 752 258.333C752 259.253 751.254 259.999 750.333 259.999ZM763.667 259.999V259.999C764.587 259.999 765.333 259.253 765.333 258.333V258.333C765.333 257.412 764.587 256.666 763.667 256.666V256.666C762.746 256.666 762 257.412 762 258.333V258.333C762 259.253 762.746 259.999 763.667 259.999Z" stroke="#00C1EC" stroke-width="1.25" stroke-linecap="round" stroke-linejoin="round"/>
</g>
<g opacity="0.75">
<rect x="767" y="132" width="32" height="32" rx="14" fill="#F174DB" fill-opacity="0.1"/>
<path d="M775.808 145.226C776.116 142.454 778.325 140.25 781.092 139.904V139.904C782.348 139.747 783.652 139.747 784.908 139.904V139.904C787.675 140.25 789.884 142.454 790.192 145.226V145.226C790.397 147.069 790.397 148.93 790.192 150.773V150.773C789.884 153.545 787.675 155.748 784.908 156.094V156.094C783.652 156.251 782.348 156.251 781.092 156.094V156.094C778.325 155.748 776.116 153.545 775.808 150.773V150.773C775.603 148.93 775.603 147.069 775.808 145.226V145.226Z" stroke="#EC44CE" stroke-width="1.25"/>
<path opacity="0.6" d="M785.5 146.333L787.118 147.951C787.145 147.978 787.145 148.022 787.118 148.049L785.5 149.666" stroke="#EC44CE" stroke-width="1.25" stroke-linecap="round"/>
<path opacity="0.6" d="M780.5 146.333L778.882 147.951C778.855 147.978 778.855 148.022 778.882 148.049L780.5 149.666" stroke="#EC44CE" stroke-width="1.25" stroke-linecap="round"/>
<path opacity="0.6" d="M782.167 151.333L783.834 144.666" stroke="#EC44CE" stroke-width="1.25" stroke-linecap="round"/>
</g>
<g opacity="0.75">
<rect width="32" height="32" rx="14" transform="matrix(-1 0 0 1 279 15)" fill="#C68AFA" fill-opacity="0.1"/>
<path d="M269.655 27.53C270.445 27.3983 271.065 26.7791 271.196 25.9889V25.9889C271.287 25.4447 271.287 24.8893 271.196 24.3451V24.3451C271.065 23.5549 270.445 22.9357 269.655 22.804V22.804C269.111 22.7133 268.556 22.7133 268.011 22.804V22.804C267.221 22.9357 266.602 23.5549 266.47 24.3451V24.3451C266.38 24.8893 266.38 25.4447 266.47 25.9889V25.9889C266.602 26.7791 267.221 27.3983 268.011 27.53V27.53C268.556 27.6207 269.111 27.6207 269.655 27.53V27.53Z" stroke="#AD58F8" stroke-width="1.25"/>
<path d="M269.655 39.196C270.445 39.0643 271.065 38.4451 271.196 37.6549V37.6549C271.287 37.1107 271.287 36.5553 271.196 36.0111V36.0111C271.065 35.2209 270.445 34.6017 269.655 34.47V34.47C269.111 34.3793 268.556 34.3793 268.011 34.47V34.47C267.221 34.6017 266.602 35.2209 266.47 36.0111V36.0111C266.38 36.5553 266.38 37.1107 266.47 37.6549V37.6549C266.602 38.4451 267.221 39.0643 268.011 39.196V39.196C268.556 39.2867 269.111 39.2867 269.655 39.196V39.196Z" stroke="#AD58F8" stroke-width="1.25"/>
<path d="M257.989 39.196C258.779 39.0643 259.398 38.4451 259.53 37.6549V37.6549C259.62 37.1107 259.62 36.5553 259.53 36.0111V36.0111C259.398 35.2209 258.779 34.6017 257.989 34.47V34.47C257.444 34.3793 256.889 34.3793 256.345 34.47V34.47C255.555 34.6017 254.935 35.2209 254.804 36.0111V36.0111C254.713 36.5553 254.713 37.1107 254.804 37.6549V37.6549C254.935 38.4451 255.555 39.0643 256.345 39.196V39.196C256.889 39.2867 257.444 39.2867 257.989 39.196V39.196Z" stroke="#AD58F8" stroke-width="1.25"/>
<path opacity="0.6" d="M268.833 27.6663L268.833 34.333" stroke="#AD58F8" stroke-width="1.25" stroke-linecap="round"/>
<path opacity="0.6" d="M260.643 22.667L262.411 24.4347C262.736 24.7602 262.736 25.2878 262.411 25.6132L260.643 27.381M262.411 25.024L258.833 25.024C257.913 25.024 257.167 25.7702 257.167 26.6906L257.167 34.3337" stroke="#AD58F8" stroke-width="1.25" stroke-linecap="round"/>
</g>
<g opacity="0.75">
<rect width="32" height="32" rx="14" transform="matrix(-1 0 0 1 279 249)" fill="#C68AFA" fill-opacity="0.1"/>
<path d="M259.775 261.157C259.962 261.72 260.465 262.118 261.056 262.172L262.128 262.269C263.816 262.423 265.515 262.394 267.196 262.184V262.184C267.717 262.119 268.202 261.882 268.573 261.51L269.616 260.467C270.104 259.979 270.104 259.188 269.616 258.699L268.573 257.656C268.202 257.285 267.717 257.048 267.196 256.983V256.983C265.515 256.773 263.816 256.744 262.128 256.897L261.056 256.995C260.465 257.049 259.962 257.447 259.775 258.01V258.01C259.434 259.031 259.434 260.136 259.775 261.157V261.157Z" stroke="#AD58F8" stroke-width="1.25"/>
<path d="M266.225 268.657C266.038 269.22 265.535 269.618 264.944 269.672L263.872 269.769C262.184 269.923 260.485 269.894 258.804 269.684V269.684C258.283 269.619 257.798 269.382 257.427 269.01L256.384 267.967C255.896 267.479 255.896 266.688 256.384 266.199L257.427 265.156C257.798 264.785 258.283 264.548 258.804 264.483V264.483C260.485 264.273 262.184 264.244 263.872 264.397L264.944 264.495C265.535 264.549 266.038 264.947 266.225 265.51V265.51C266.566 266.531 266.566 267.636 266.225 268.657V268.657Z" stroke="#AD58F8" stroke-width="1.25"/>
<path opacity="0.6" d="M265.5 273.334L265.108 273.203C264.424 272.975 263.712 272.861 263 272.861M260.5 273.334L260.892 273.203C261.576 272.975 262.288 272.861 263 272.861M263 270V272.861" stroke="#AD58F8" stroke-width="1.25" stroke-linecap="round"/>
<path opacity="0.6" d="M263 262.5V264.167" stroke="#AD58F8" stroke-width="1.25" stroke-linecap="round"/>
</g>
<g opacity="0.75">
<rect width="32" height="32" rx="14" transform="matrix(-1 0 0 1 250 132)" fill="#F8C386" fill-opacity="0.1"/>
<path d="M229.811 152.889C230.082 154.246 231.06 155.354 232.374 155.792V155.792C233.429 156.144 234.571 156.144 235.626 155.792V155.792C236.94 155.354 237.918 154.246 238.189 152.889L238.295 152.358C238.76 150.032 238.76 147.636 238.295 145.31L238.189 144.779C237.918 143.422 236.94 142.314 235.626 141.876V141.876C234.571 141.524 233.429 141.524 232.374 141.876V141.876C231.06 142.314 230.082 143.422 229.811 144.779L229.705 145.31C229.24 147.636 229.24 150.032 229.705 152.358L229.811 152.889Z" stroke="#F5AB56" stroke-width="1.25"/>
<path opacity="0.6" d="M231.5 141.749L230.667 139.666" stroke="#F5AB56" stroke-width="1.25" stroke-linecap="round"/>
<path opacity="0.6" d="M236.5 141.749L237.333 139.666" stroke="#F5AB56" stroke-width="1.25" stroke-linecap="round"/>
<path opacity="0.6" d="M235.25 146.333L235.667 145.5" stroke="#F5AB56" stroke-width="1.25" stroke-linecap="round"/>
<path opacity="0.6" d="M232.75 146.333L232.333 145.5" stroke="#F5AB56" stroke-width="1.25" stroke-linecap="round"/>
<path opacity="0.6" d="M238.167 144.667L240.667 143.834" stroke="#F5AB56" stroke-width="1.25" stroke-linecap="round"/>
<path opacity="0.6" d="M229.833 144.667L227.333 143.834" stroke="#F5AB56" stroke-width="1.25" stroke-linecap="round"/>
<path opacity="0.6" d="M239 148.834H241.5" stroke="#F5AB56" stroke-width="1.25" stroke-linecap="round"/>
<path opacity="0.6" d="M229 148.834H226.5" stroke="#F5AB56" stroke-width="1.25" stroke-linecap="round"/>
<path opacity="0.6" d="M238.167 153.001L240.667 153.834" stroke="#F5AB56" stroke-width="1.25" stroke-linecap="round"/>
<path opacity="0.6" d="M229.833 153.001L227.333 153.834" stroke="#F5AB56" stroke-width="1.25" stroke-linecap="round"/>
</g>
</g>
<defs>
<clipPath id="clip0_6556_17821">
<rect width="1017" height="294" fill="white"/>
</clipPath>
</defs>
</svg>
