<svg width="1017" height="350" viewBox="0 0 1017 350" fill="none" xmlns="http://www.w3.org/2000/svg">
<g clip-path="url(#clip0_6556_17564)">
<path d="M492.771 100.546L490.743 98.544C490.033 99.0813 489.24 99.5017 488.364 99.805C487.498 100.108 486.583 100.26 485.621 100.26C484.391 100.26 483.234 100.017 482.15 99.532C481.067 99.038 480.114 98.362 479.29 97.504C478.467 96.6373 477.821 95.632 477.353 94.488C476.885 93.344 476.651 92.122 476.651 90.822C476.651 89.522 476.885 88.3043 477.353 87.169C477.821 86.025 478.467 85.0197 479.29 84.153C480.114 83.2863 481.067 82.6103 482.15 82.125C483.234 81.631 484.391 81.384 485.621 81.384C486.861 81.384 488.022 81.631 489.105 82.125C490.189 82.6103 491.142 83.2863 491.965 84.153C492.789 85.0197 493.43 86.025 493.889 87.169C494.357 88.3043 494.591 89.522 494.591 90.822C494.591 91.836 494.444 92.8023 494.149 93.721C493.855 94.631 493.452 95.4717 492.94 96.243L495.007 98.31L492.771 100.546ZM485.621 97.088C486.124 97.088 486.618 97.0143 487.103 96.867C487.589 96.711 488.035 96.4943 488.442 96.217L486.791 94.566L489.027 92.317L490.574 93.877C490.852 93.4263 491.06 92.941 491.198 92.421C491.346 91.901 491.419 91.368 491.419 90.822C491.419 89.9553 491.268 89.145 490.964 88.391C490.661 87.637 490.241 86.974 489.703 86.402C489.175 85.8213 488.559 85.3707 487.857 85.05C487.164 84.7207 486.419 84.556 485.621 84.556C484.824 84.556 484.074 84.7207 483.372 85.05C482.67 85.3793 482.051 85.8343 481.513 86.415C480.985 86.987 480.569 87.65 480.265 88.404C479.971 89.158 479.823 89.964 479.823 90.822C479.823 91.68 479.975 92.4903 480.278 93.253C480.582 94.007 480.998 94.6743 481.526 95.255C482.064 95.827 482.679 96.2777 483.372 96.607C484.074 96.9277 484.824 97.088 485.621 97.088ZM496.685 95.19V87H499.857V94.358C499.857 94.8693 499.982 95.3373 500.234 95.762C500.485 96.178 500.819 96.5117 501.235 96.763C501.659 97.0057 502.123 97.127 502.626 97.127C503.146 97.127 503.614 97.0057 504.03 96.763C504.446 96.5117 504.779 96.178 505.031 95.762C505.282 95.3373 505.408 94.8693 505.408 94.358V87H508.58L508.593 100H505.421L505.408 98.817C504.957 99.285 504.424 99.6577 503.809 99.935C503.193 100.204 502.535 100.338 501.833 100.338C500.888 100.338 500.026 100.108 499.246 99.649C498.466 99.181 497.842 98.5613 497.374 97.79C496.914 97.01 496.685 96.1433 496.685 95.19ZM511.195 87H514.367V100H511.195V87ZM512.807 85.323C512.339 85.323 511.944 85.1713 511.624 84.868C511.303 84.556 511.143 84.166 511.143 83.698C511.143 83.2387 511.303 82.853 511.624 82.541C511.944 82.229 512.334 82.073 512.794 82.073C513.253 82.073 513.639 82.229 513.951 82.541C514.271 82.853 514.432 83.2387 514.432 83.698C514.432 84.166 514.276 84.556 513.964 84.868C513.652 85.1713 513.266 85.323 512.807 85.323ZM525.247 96.087L528.107 97.634C527.509 98.4487 526.759 99.103 525.858 99.597C524.957 100.091 523.973 100.338 522.907 100.338C521.711 100.338 520.619 100.03 519.631 99.415C518.652 98.7997 517.867 97.9763 517.278 96.945C516.697 95.905 516.407 94.7567 516.407 93.5C516.407 92.5467 516.576 91.6583 516.914 90.835C517.252 90.003 517.716 89.275 518.305 88.651C518.903 88.0183 519.596 87.5243 520.385 87.169C521.174 86.8137 522.014 86.636 522.907 86.636C523.973 86.636 524.957 86.883 525.858 87.377C526.759 87.871 527.509 88.534 528.107 89.366L525.247 90.9C524.944 90.5533 524.584 90.2847 524.168 90.094C523.761 89.9033 523.34 89.808 522.907 89.808C522.283 89.808 521.72 89.9813 521.217 90.328C520.714 90.666 520.316 91.1167 520.021 91.68C519.726 92.2347 519.579 92.8413 519.579 93.5C519.579 94.15 519.726 94.7567 520.021 95.32C520.316 95.8747 520.714 96.321 521.217 96.659C521.72 96.997 522.283 97.166 522.907 97.166C523.358 97.166 523.787 97.0707 524.194 96.88C524.601 96.6807 524.952 96.4163 525.247 96.087ZM541.644 100H537.991L535.027 94.891L533.207 97.062V100H530.035V80.5H533.207V92.135L537.51 87H541.657L537.198 92.317L541.644 100ZM440.326 131V112.8H443.498V131H440.326ZM458.928 122.784V131H455.756V123.616C455.756 123.105 455.63 122.641 455.379 122.225C455.128 121.8 454.79 121.467 454.365 121.224C453.949 120.973 453.485 120.847 452.974 120.847C452.463 120.847 451.995 120.973 451.57 121.224C451.154 121.467 450.82 121.8 450.569 122.225C450.326 122.641 450.205 123.105 450.205 123.616V131H447.033L447.02 118H450.192L450.205 119.157C450.647 118.689 451.176 118.321 451.791 118.052C452.406 117.775 453.069 117.636 453.78 117.636C454.725 117.636 455.587 117.87 456.367 118.338C457.147 118.797 457.767 119.417 458.226 120.197C458.694 120.968 458.928 121.831 458.928 122.784ZM468.486 121.172H465.964V131H462.792V121.172H460.868V118H462.792V113.918H465.964V118H468.486V121.172ZM470.849 131L470.836 118H474.008L474.021 119.157C474.463 118.689 474.992 118.321 475.607 118.052C476.223 117.775 476.886 117.636 477.596 117.636C478.073 117.636 478.55 117.705 479.026 117.844L477.778 121.042C477.449 120.912 477.12 120.847 476.79 120.847C476.279 120.847 475.811 120.973 475.386 121.224C474.97 121.467 474.637 121.8 474.385 122.225C474.143 122.641 474.021 123.105 474.021 123.616V131H470.849ZM485.595 131.338C484.399 131.338 483.307 131.03 482.319 130.415C481.34 129.8 480.556 128.976 479.966 127.945C479.386 126.905 479.095 125.757 479.095 124.5C479.095 123.547 479.264 122.658 479.602 121.835C479.94 121.003 480.404 120.275 480.993 119.651C481.591 119.018 482.285 118.524 483.073 118.169C483.862 117.814 484.703 117.636 485.595 117.636C486.791 117.636 487.879 117.944 488.858 118.559C489.846 119.174 490.631 120.002 491.211 121.042C491.801 122.082 492.095 123.235 492.095 124.5C492.095 125.445 491.926 126.329 491.588 127.152C491.25 127.975 490.782 128.703 490.184 129.336C489.595 129.96 488.906 130.45 488.117 130.805C487.337 131.16 486.497 131.338 485.595 131.338ZM485.595 128.166C486.228 128.166 486.796 127.997 487.298 127.659C487.801 127.321 488.195 126.875 488.481 126.32C488.776 125.765 488.923 125.159 488.923 124.5C488.923 123.824 488.772 123.209 488.468 122.654C488.174 122.091 487.771 121.644 487.259 121.315C486.757 120.977 486.202 120.808 485.595 120.808C484.971 120.808 484.408 120.977 483.905 121.315C483.403 121.653 483.004 122.104 482.709 122.667C482.415 123.23 482.267 123.841 482.267 124.5C482.267 125.185 482.419 125.804 482.722 126.359C483.026 126.914 483.429 127.356 483.931 127.685C484.443 128.006 484.997 128.166 485.595 128.166ZM503.998 111.5H507.17V131H503.998V129.375C503.582 129.956 503.058 130.428 502.425 130.792C501.793 131.156 501.06 131.338 500.228 131.338C499.284 131.338 498.4 131.16 497.576 130.805C496.753 130.45 496.025 129.96 495.392 129.336C494.768 128.703 494.279 127.975 493.923 127.152C493.568 126.329 493.39 125.445 493.39 124.5C493.39 123.555 493.568 122.671 493.923 121.848C494.279 121.025 494.768 120.301 495.392 119.677C496.025 119.044 496.753 118.55 497.576 118.195C498.4 117.84 499.284 117.662 500.228 117.662C501.06 117.662 501.793 117.844 502.425 118.208C503.058 118.563 503.582 119.036 503.998 119.625V111.5ZM500.267 128.283C500.943 128.283 501.541 128.114 502.061 127.776C502.581 127.438 502.989 126.983 503.283 126.411C503.578 125.83 503.725 125.193 503.725 124.5C503.725 123.798 503.578 123.161 503.283 122.589C502.989 122.008 502.577 121.549 502.048 121.211C501.528 120.873 500.935 120.704 500.267 120.704C499.6 120.704 498.989 120.877 498.434 121.224C497.888 121.562 497.451 122.017 497.121 122.589C496.801 123.161 496.64 123.798 496.64 124.5C496.64 125.202 496.805 125.839 497.134 126.411C497.464 126.983 497.901 127.438 498.447 127.776C499.002 128.114 499.609 128.283 500.267 128.283ZM509.773 126.19V118H512.945V125.358C512.945 125.869 513.071 126.337 513.322 126.762C513.574 127.178 513.907 127.512 514.323 127.763C514.748 128.006 515.212 128.127 515.714 128.127C516.234 128.127 516.702 128.006 517.118 127.763C517.534 127.512 517.868 127.178 518.119 126.762C518.371 126.337 518.496 125.869 518.496 125.358V118H521.668L521.681 131H518.509L518.496 129.817C518.046 130.285 517.513 130.658 516.897 130.935C516.282 131.204 515.623 131.338 514.921 131.338C513.977 131.338 513.114 131.108 512.334 130.649C511.554 130.181 510.93 129.561 510.462 128.79C510.003 128.01 509.773 127.143 509.773 126.19ZM532.141 127.087L535.001 128.634C534.403 129.449 533.653 130.103 532.752 130.597C531.85 131.091 530.867 131.338 529.801 131.338C528.605 131.338 527.513 131.03 526.525 130.415C525.545 129.8 524.761 128.976 524.172 127.945C523.591 126.905 523.301 125.757 523.301 124.5C523.301 123.547 523.47 122.658 523.808 121.835C524.146 121.003 524.609 120.275 525.199 119.651C525.797 119.018 526.49 118.524 527.279 118.169C528.067 117.814 528.908 117.636 529.801 117.636C530.867 117.636 531.85 117.883 532.752 118.377C533.653 118.871 534.403 119.534 535.001 120.366L532.141 121.9C531.837 121.553 531.478 121.285 531.062 121.094C530.654 120.903 530.234 120.808 529.801 120.808C529.177 120.808 528.613 120.981 528.111 121.328C527.608 121.666 527.209 122.117 526.915 122.68C526.62 123.235 526.473 123.841 526.473 124.5C526.473 125.15 526.62 125.757 526.915 126.32C527.209 126.875 527.608 127.321 528.111 127.659C528.613 127.997 529.177 128.166 529.801 128.166C530.251 128.166 530.68 128.071 531.088 127.88C531.495 127.681 531.846 127.416 532.141 127.087ZM544.302 121.172H541.78V131H538.608V121.172H536.684V118H538.608V113.918H541.78V118H544.302V121.172ZM546.45 118H549.622V131H546.45V118ZM548.062 116.323C547.594 116.323 547.199 116.171 546.879 115.868C546.558 115.556 546.398 115.166 546.398 114.698C546.398 114.239 546.558 113.853 546.879 113.541C547.199 113.229 547.589 113.073 548.049 113.073C548.508 113.073 548.894 113.229 549.206 113.541C549.526 113.853 549.687 114.239 549.687 114.698C549.687 115.166 549.531 115.556 549.219 115.868C548.907 116.171 548.521 116.323 548.062 116.323ZM558.162 131.338C556.966 131.338 555.874 131.03 554.886 130.415C553.907 129.8 553.122 128.976 552.533 127.945C551.952 126.905 551.662 125.757 551.662 124.5C551.662 123.547 551.831 122.658 552.169 121.835C552.507 121.003 552.971 120.275 553.56 119.651C554.158 119.018 554.851 118.524 555.64 118.169C556.429 117.814 557.269 117.636 558.162 117.636C559.358 117.636 560.446 117.944 561.425 118.559C562.413 119.174 563.197 120.002 563.778 121.042C564.367 122.082 564.662 123.235 564.662 124.5C564.662 125.445 564.493 126.329 564.155 127.152C563.817 127.975 563.349 128.703 562.751 129.336C562.162 129.96 561.473 130.45 560.684 130.805C559.904 131.16 559.063 131.338 558.162 131.338ZM558.162 128.166C558.795 128.166 559.362 127.997 559.865 127.659C560.368 127.321 560.762 126.875 561.048 126.32C561.343 125.765 561.49 125.159 561.49 124.5C561.49 123.824 561.338 123.209 561.035 122.654C560.74 122.091 560.337 121.644 559.826 121.315C559.323 120.977 558.769 120.808 558.162 120.808C557.538 120.808 556.975 120.977 556.472 121.315C555.969 121.653 555.571 122.104 555.276 122.667C554.981 123.23 554.834 123.841 554.834 124.5C554.834 125.185 554.986 125.804 555.289 126.359C555.592 126.914 555.995 127.356 556.498 127.685C557.009 128.006 557.564 128.166 558.162 128.166ZM578.594 122.784V131H575.422V123.616C575.422 123.105 575.296 122.641 575.045 122.225C574.794 121.8 574.456 121.467 574.031 121.224C573.615 120.973 573.151 120.847 572.64 120.847C572.129 120.847 571.661 120.973 571.236 121.224C570.82 121.467 570.486 121.8 570.235 122.225C569.992 122.641 569.871 123.105 569.871 123.616V131H566.699L566.686 118H569.858L569.871 119.157C570.313 118.689 570.842 118.321 571.457 118.052C572.072 117.775 572.735 117.636 573.446 117.636C574.391 117.636 575.253 117.87 576.033 118.338C576.813 118.797 577.433 119.417 577.892 120.197C578.36 120.968 578.594 121.831 578.594 122.784Z" fill="#E6E6E6"/>
<path d="M429.351 241V229.8H435.967V231.752H431.303V234.024H435.199V235.976H431.303V241H429.351ZM436.734 241L436.726 233H438.678L438.686 233.712C438.958 233.424 439.283 233.197 439.662 233.032C440.04 232.861 440.448 232.776 440.886 232.776C441.179 232.776 441.472 232.819 441.766 232.904L440.998 234.872C440.795 234.792 440.592 234.752 440.39 234.752C440.075 234.752 439.787 234.829 439.526 234.984C439.27 235.133 439.064 235.339 438.91 235.6C438.76 235.856 438.686 236.141 438.686 236.456V241H436.734ZM445.808 241.208C445.072 241.208 444.4 241.019 443.792 240.64C443.189 240.261 442.707 239.755 442.344 239.12C441.987 238.48 441.808 237.773 441.808 237C441.808 236.413 441.912 235.867 442.12 235.36C442.328 234.848 442.613 234.4 442.976 234.016C443.344 233.627 443.771 233.323 444.256 233.104C444.741 232.885 445.259 232.776 445.808 232.776C446.544 232.776 447.213 232.965 447.816 233.344C448.424 233.723 448.907 234.232 449.264 234.872C449.627 235.512 449.808 236.221 449.808 237C449.808 237.581 449.704 238.125 449.496 238.632C449.288 239.139 449 239.587 448.632 239.976C448.269 240.36 447.845 240.661 447.36 240.88C446.88 241.099 446.363 241.208 445.808 241.208ZM445.808 239.256C446.197 239.256 446.547 239.152 446.856 238.944C447.165 238.736 447.408 238.461 447.584 238.12C447.765 237.779 447.856 237.405 447.856 237C447.856 236.584 447.763 236.205 447.576 235.864C447.395 235.517 447.147 235.243 446.832 235.04C446.523 234.832 446.181 234.728 445.808 234.728C445.424 234.728 445.077 234.832 444.768 235.04C444.459 235.248 444.213 235.525 444.032 235.872C443.851 236.219 443.76 236.595 443.76 237C443.76 237.421 443.853 237.803 444.04 238.144C444.227 238.485 444.475 238.757 444.784 238.96C445.099 239.157 445.44 239.256 445.808 239.256ZM458.382 235.944V241H456.43V236.456C456.43 236.141 456.352 235.856 456.198 235.6C456.043 235.339 455.835 235.133 455.574 234.984C455.318 234.829 455.032 234.752 454.718 234.752C454.403 234.752 454.115 234.829 453.854 234.984C453.598 235.133 453.392 235.339 453.238 235.6C453.088 235.856 453.014 236.141 453.014 236.456V241H451.062L451.054 233H453.006L453.014 233.712C453.286 233.424 453.611 233.197 453.99 233.032C454.368 232.861 454.776 232.776 455.214 232.776C455.795 232.776 456.326 232.92 456.806 233.208C457.286 233.491 457.667 233.872 457.95 234.352C458.238 234.827 458.382 235.357 458.382 235.944ZM464.264 234.952H462.712V241H460.76V234.952H459.576V233H460.76V230.488H462.712V233H464.264V234.952ZM469.043 241.208C468.307 241.208 467.635 241.019 467.027 240.64C466.424 240.261 465.941 239.752 465.579 239.112C465.221 238.472 465.043 237.765 465.043 236.992C465.043 236.411 465.147 235.867 465.355 235.36C465.563 234.848 465.848 234.4 466.211 234.016C466.579 233.627 467.005 233.323 467.491 233.104C467.976 232.885 468.493 232.776 469.043 232.776C469.667 232.776 470.237 232.909 470.755 233.176C471.277 233.437 471.72 233.797 472.083 234.256C472.445 234.715 472.709 235.237 472.875 235.824C473.04 236.411 473.077 237.024 472.987 237.664H467.139C467.213 237.963 467.336 238.232 467.507 238.472C467.677 238.707 467.893 238.896 468.155 239.04C468.416 239.179 468.712 239.251 469.043 239.256C469.384 239.261 469.693 239.181 469.971 239.016C470.253 238.845 470.488 238.616 470.675 238.328L472.667 238.792C472.341 239.501 471.856 240.083 471.211 240.536C470.565 240.984 469.843 241.208 469.043 241.208ZM467.075 236.2H471.011C470.952 235.88 470.827 235.592 470.635 235.336C470.448 235.075 470.216 234.867 469.939 234.712C469.661 234.557 469.363 234.48 469.043 234.48C468.723 234.48 468.427 234.557 468.155 234.712C467.883 234.861 467.651 235.067 467.459 235.328C467.272 235.584 467.144 235.875 467.075 236.2ZM481.616 235.944V241H479.664V236.456C479.664 236.141 479.587 235.856 479.432 235.6C479.277 235.339 479.069 235.133 478.808 234.984C478.552 234.829 478.267 234.752 477.952 234.752C477.637 234.752 477.349 234.829 477.088 234.984C476.832 235.133 476.627 235.339 476.472 235.6C476.323 235.856 476.248 236.141 476.248 236.456V241H474.296L474.288 233H476.24L476.248 233.712C476.52 233.424 476.845 233.197 477.224 233.032C477.603 232.861 478.011 232.776 478.448 232.776C479.029 232.776 479.56 232.92 480.04 233.208C480.52 233.491 480.901 233.872 481.184 234.352C481.472 234.827 481.616 235.357 481.616 235.944ZM489.102 229H491.054V241H489.102V240C488.846 240.357 488.523 240.648 488.134 240.872C487.744 241.096 487.294 241.208 486.782 241.208C486.2 241.208 485.656 241.099 485.15 240.88C484.643 240.661 484.195 240.36 483.806 239.976C483.422 239.587 483.12 239.139 482.902 238.632C482.683 238.125 482.574 237.581 482.574 237C482.574 236.419 482.683 235.875 482.902 235.368C483.12 234.861 483.422 234.416 483.806 234.032C484.195 233.643 484.643 233.339 485.15 233.12C485.656 232.901 486.2 232.792 486.782 232.792C487.294 232.792 487.744 232.904 488.134 233.128C488.523 233.347 488.846 233.637 489.102 234V229ZM486.806 239.328C487.222 239.328 487.59 239.224 487.91 239.016C488.23 238.808 488.48 238.528 488.662 238.176C488.843 237.819 488.934 237.427 488.934 237C488.934 236.568 488.843 236.176 488.662 235.824C488.48 235.467 488.227 235.184 487.902 234.976C487.582 234.768 487.216 234.664 486.806 234.664C486.395 234.664 486.019 234.771 485.678 234.984C485.342 235.192 485.072 235.472 484.87 235.824C484.672 236.176 484.574 236.568 484.574 237C484.574 237.432 484.675 237.824 484.878 238.176C485.08 238.528 485.35 238.808 485.686 239.016C486.027 239.224 486.4 239.328 486.806 239.328ZM502.851 233H504.803V241H502.851L502.763 240.008C502.545 240.365 502.254 240.656 501.891 240.88C501.534 241.099 501.11 241.208 500.619 241.208C500.027 241.208 499.473 241.096 498.955 240.872C498.438 240.648 497.982 240.339 497.587 239.944C497.198 239.549 496.891 239.093 496.667 238.576C496.449 238.059 496.339 237.504 496.339 236.912C496.339 236.341 496.443 235.805 496.651 235.304C496.865 234.803 497.161 234.363 497.539 233.984C497.918 233.605 498.355 233.309 498.851 233.096C499.347 232.883 499.881 232.776 500.451 232.776C500.979 232.776 501.451 232.893 501.867 233.128C502.289 233.363 502.646 233.661 502.939 234.024L502.851 233ZM500.571 239.328C500.987 239.328 501.355 239.224 501.675 239.016C501.995 238.808 502.246 238.528 502.427 238.176C502.609 237.819 502.699 237.427 502.699 237C502.699 236.568 502.609 236.176 502.427 235.824C502.246 235.467 501.993 235.184 501.667 234.976C501.347 234.768 500.982 234.664 500.571 234.664C500.161 234.664 499.785 234.771 499.443 234.984C499.107 235.192 498.838 235.472 498.635 235.824C498.438 236.176 498.339 236.568 498.339 237C498.339 237.432 498.441 237.824 498.643 238.176C498.846 238.528 499.115 238.808 499.451 239.016C499.793 239.224 500.166 239.328 500.571 239.328ZM513.726 235.944V241H511.774V236.456C511.774 236.141 511.696 235.856 511.542 235.6C511.387 235.339 511.179 235.133 510.918 234.984C510.662 234.829 510.376 234.752 510.062 234.752C509.747 234.752 509.459 234.829 509.198 234.984C508.942 235.133 508.736 235.339 508.582 235.6C508.432 235.856 508.358 236.141 508.358 236.456V241H506.406L506.398 233H508.35L508.358 233.712C508.63 233.424 508.955 233.197 509.334 233.032C509.712 232.861 510.12 232.776 510.558 232.776C511.139 232.776 511.67 232.92 512.15 233.208C512.63 233.491 513.011 233.872 513.294 234.352C513.582 234.827 513.726 235.357 513.726 235.944ZM521.211 229H523.163V241H521.211V240C520.955 240.357 520.632 240.648 520.243 240.872C519.854 241.096 519.403 241.208 518.891 241.208C518.31 241.208 517.766 241.099 517.259 240.88C516.752 240.661 516.304 240.36 515.915 239.976C515.531 239.587 515.23 239.139 515.011 238.632C514.792 238.125 514.683 237.581 514.683 237C514.683 236.419 514.792 235.875 515.011 235.368C515.23 234.861 515.531 234.416 515.915 234.032C516.304 233.643 516.752 233.339 517.259 233.12C517.766 232.901 518.31 232.792 518.891 232.792C519.403 232.792 519.854 232.904 520.243 233.128C520.632 233.347 520.955 233.637 521.211 234V229ZM518.915 239.328C519.331 239.328 519.699 239.224 520.019 239.016C520.339 238.808 520.59 238.528 520.771 238.176C520.952 237.819 521.043 237.427 521.043 237C521.043 236.568 520.952 236.176 520.771 235.824C520.59 235.467 520.336 235.184 520.011 234.976C519.691 234.768 519.326 234.664 518.915 234.664C518.504 234.664 518.128 234.771 517.787 234.984C517.451 235.192 517.182 235.472 516.979 235.824C516.782 236.176 516.683 236.568 516.683 237C516.683 237.432 516.784 237.824 516.987 238.176C517.19 238.528 517.459 238.808 517.795 239.016C518.136 239.224 518.51 239.328 518.915 239.328ZM528.929 241V229.8H533.009C533.601 229.8 534.134 229.923 534.609 230.168C535.089 230.408 535.467 230.755 535.745 231.208C536.027 231.656 536.169 232.187 536.169 232.8C536.169 233.072 536.129 233.347 536.049 233.624C535.969 233.901 535.846 234.152 535.681 234.376C535.515 234.595 535.302 234.757 535.041 234.864C535.387 234.949 535.67 235.104 535.889 235.328C536.107 235.552 536.278 235.816 536.401 236.12C536.523 236.419 536.606 236.725 536.649 237.04C536.697 237.349 536.721 237.637 536.721 237.904C536.721 238.496 536.574 239.024 536.281 239.488C535.987 239.952 535.593 240.32 535.097 240.592C534.606 240.864 534.062 241 533.465 241H528.929ZM530.881 239.328H533.265C533.585 239.328 533.873 239.251 534.129 239.096C534.385 238.941 534.59 238.728 534.745 238.456C534.899 238.184 534.977 237.875 534.977 237.528C534.977 237.229 534.899 236.947 534.745 236.68C534.59 236.413 534.385 236.197 534.129 236.032C533.873 235.867 533.585 235.784 533.265 235.784H530.881V239.328ZM530.881 234.136H532.785C533.179 234.136 533.515 234.013 533.793 233.768C534.075 233.523 534.217 233.197 534.217 232.792C534.217 232.36 534.075 232.035 533.793 231.816C533.515 231.592 533.179 231.48 532.785 231.48H530.881V234.136ZM543.93 233H545.882V241H543.93L543.842 240.008C543.623 240.365 543.332 240.656 542.97 240.88C542.612 241.099 542.188 241.208 541.698 241.208C541.106 241.208 540.551 241.096 540.034 240.872C539.516 240.648 539.06 240.339 538.666 239.944C538.276 239.549 537.97 239.093 537.746 238.576C537.527 238.059 537.418 237.504 537.418 236.912C537.418 236.341 537.522 235.805 537.73 235.304C537.943 234.803 538.239 234.363 538.618 233.984C538.996 233.605 539.434 233.309 539.93 233.096C540.426 232.883 540.959 232.776 541.53 232.776C542.058 232.776 542.53 232.893 542.946 233.128C543.367 233.363 543.724 233.661 544.018 234.024L543.93 233ZM541.65 239.328C542.066 239.328 542.434 239.224 542.754 239.016C543.074 238.808 543.324 238.528 543.506 238.176C543.687 237.819 543.778 237.427 543.778 237C543.778 236.568 543.687 236.176 543.506 235.824C543.324 235.467 543.071 235.184 542.746 234.976C542.426 234.768 542.06 234.664 541.65 234.664C541.239 234.664 540.863 234.771 540.522 234.984C540.186 235.192 539.916 235.472 539.714 235.824C539.516 236.176 539.418 236.568 539.418 237C539.418 237.432 539.519 237.824 539.722 238.176C539.924 238.528 540.194 238.808 540.53 239.016C540.871 239.224 541.244 239.328 541.65 239.328ZM552.279 238.592L554.039 239.544C553.671 240.045 553.21 240.448 552.655 240.752C552.101 241.056 551.495 241.208 550.839 241.208C550.103 241.208 549.431 241.019 548.823 240.64C548.221 240.261 547.738 239.755 547.375 239.12C547.018 238.48 546.839 237.773 546.839 237C546.839 236.413 546.943 235.867 547.151 235.36C547.359 234.848 547.645 234.4 548.007 234.016C548.375 233.627 548.802 233.323 549.287 233.104C549.773 232.885 550.29 232.776 550.839 232.776C551.495 232.776 552.101 232.928 552.655 233.232C553.21 233.536 553.671 233.944 554.039 234.456L552.279 235.4C552.093 235.187 551.871 235.021 551.615 234.904C551.365 234.787 551.106 234.728 550.839 234.728C550.455 234.728 550.109 234.835 549.799 235.048C549.49 235.256 549.245 235.533 549.063 235.88C548.882 236.221 548.791 236.595 548.791 237C548.791 237.4 548.882 237.773 549.063 238.12C549.245 238.461 549.49 238.736 549.799 238.944C550.109 239.152 550.455 239.256 550.839 239.256C551.117 239.256 551.381 239.197 551.631 239.08C551.882 238.957 552.098 238.795 552.279 238.592ZM562.37 241H560.122L558.298 237.856L557.178 239.192V241H555.226V229H557.178V236.16L559.826 233H562.378L559.634 236.272L562.37 241ZM566.636 241.208C565.9 241.208 565.228 241.019 564.62 240.64C564.018 240.261 563.535 239.752 563.172 239.112C562.815 238.472 562.636 237.765 562.636 236.992C562.636 236.411 562.74 235.867 562.948 235.36C563.156 234.848 563.442 234.4 563.804 234.016C564.172 233.627 564.599 233.323 565.084 233.104C565.57 232.885 566.087 232.776 566.636 232.776C567.26 232.776 567.831 232.909 568.348 233.176C568.871 233.437 569.314 233.797 569.676 234.256C570.039 234.715 570.303 235.237 570.468 235.824C570.634 236.411 570.671 237.024 570.58 237.664H564.732C564.807 237.963 564.93 238.232 565.1 238.472C565.271 238.707 565.487 238.896 565.748 239.04C566.01 239.179 566.306 239.251 566.636 239.256C566.978 239.261 567.287 239.181 567.564 239.016C567.847 238.845 568.082 238.616 568.268 238.328L570.26 238.792C569.935 239.501 569.45 240.083 568.804 240.536C568.159 240.984 567.436 241.208 566.636 241.208ZM564.668 236.2H568.604C568.546 235.88 568.42 235.592 568.228 235.336C568.042 235.075 567.81 234.867 567.532 234.712C567.255 234.557 566.956 234.48 566.636 234.48C566.316 234.48 566.02 234.557 565.748 234.712C565.476 234.861 565.244 235.067 565.052 235.328C564.866 235.584 564.738 235.875 564.668 236.2ZM579.21 235.944V241H577.258V236.456C577.258 236.141 577.181 235.856 577.026 235.6C576.871 235.339 576.663 235.133 576.402 234.984C576.146 234.829 575.861 234.752 575.546 234.752C575.231 234.752 574.943 234.829 574.682 234.984C574.426 235.133 574.221 235.339 574.066 235.6C573.917 235.856 573.842 236.141 573.842 236.456V241H571.89L571.882 233H573.834L573.842 233.712C574.114 233.424 574.439 233.197 574.818 233.032C575.197 232.861 575.605 232.776 576.042 232.776C576.623 232.776 577.154 232.92 577.634 233.208C578.114 233.491 578.495 233.872 578.778 234.352C579.066 234.827 579.21 235.357 579.21 235.944ZM586.696 229H588.648V241H586.696V240C586.44 240.357 586.117 240.648 585.728 240.872C585.338 241.096 584.888 241.208 584.376 241.208C583.794 241.208 583.25 241.099 582.744 240.88C582.237 240.661 581.789 240.36 581.4 239.976C581.016 239.587 580.714 239.139 580.496 238.632C580.277 238.125 580.168 237.581 580.168 237C580.168 236.419 580.277 235.875 580.496 235.368C580.714 234.861 581.016 234.416 581.4 234.032C581.789 233.643 582.237 233.339 582.744 233.12C583.25 232.901 583.794 232.792 584.376 232.792C584.888 232.792 585.338 232.904 585.728 233.128C586.117 233.347 586.44 233.637 586.696 234V229ZM584.4 239.328C584.816 239.328 585.184 239.224 585.504 239.016C585.824 238.808 586.074 238.528 586.256 238.176C586.437 237.819 586.528 237.427 586.528 237C586.528 236.568 586.437 236.176 586.256 235.824C586.074 235.467 585.821 235.184 585.496 234.976C585.176 234.768 584.81 234.664 584.4 234.664C583.989 234.664 583.613 234.771 583.272 234.984C582.936 235.192 582.666 235.472 582.464 235.824C582.266 236.176 582.168 236.568 582.168 237C582.168 237.432 582.269 237.824 582.472 238.176C582.674 238.528 582.944 238.808 583.28 239.016C583.621 239.224 583.994 239.328 584.4 239.328ZM455.608 260V248.8H459.688C460.28 248.8 460.814 248.923 461.288 249.168C461.768 249.408 462.147 249.755 462.424 250.208C462.707 250.656 462.848 251.187 462.848 251.8C462.848 252.072 462.808 252.347 462.728 252.624C462.648 252.901 462.526 253.152 462.36 253.376C462.195 253.595 461.982 253.757 461.72 253.864C462.067 253.949 462.35 254.104 462.568 254.328C462.787 254.552 462.958 254.816 463.08 255.12C463.203 255.419 463.286 255.725 463.328 256.04C463.376 256.349 463.4 256.637 463.4 256.904C463.4 257.496 463.254 258.024 462.96 258.488C462.667 258.952 462.272 259.32 461.776 259.592C461.286 259.864 460.742 260 460.144 260H455.608ZM457.56 258.328H459.944C460.264 258.328 460.552 258.251 460.808 258.096C461.064 257.941 461.27 257.728 461.424 257.456C461.579 257.184 461.656 256.875 461.656 256.528C461.656 256.229 461.579 255.947 461.424 255.68C461.27 255.413 461.064 255.197 460.808 255.032C460.552 254.867 460.264 254.784 459.944 254.784H457.56V258.328ZM457.56 253.136H459.464C459.859 253.136 460.195 253.013 460.472 252.768C460.755 252.523 460.896 252.197 460.896 251.792C460.896 251.36 460.755 251.035 460.472 250.816C460.195 250.592 459.859 250.48 459.464 250.48H457.56V253.136ZM470.609 252H472.561V260H470.609L470.521 259.008C470.303 259.365 470.012 259.656 469.649 259.88C469.292 260.099 468.868 260.208 468.377 260.208C467.785 260.208 467.231 260.096 466.713 259.872C466.196 259.648 465.74 259.339 465.345 258.944C464.956 258.549 464.649 258.093 464.425 257.576C464.207 257.059 464.097 256.504 464.097 255.912C464.097 255.341 464.201 254.805 464.409 254.304C464.623 253.803 464.919 253.363 465.297 252.984C465.676 252.605 466.113 252.309 466.609 252.096C467.105 251.883 467.639 251.776 468.209 251.776C468.737 251.776 469.209 251.893 469.625 252.128C470.047 252.363 470.404 252.661 470.697 253.024L470.609 252ZM468.329 258.328C468.745 258.328 469.113 258.224 469.433 258.016C469.753 257.808 470.004 257.528 470.185 257.176C470.367 256.819 470.457 256.427 470.457 256C470.457 255.568 470.367 255.176 470.185 254.824C470.004 254.467 469.751 254.184 469.425 253.976C469.105 253.768 468.74 253.664 468.329 253.664C467.919 253.664 467.543 253.771 467.201 253.984C466.865 254.192 466.596 254.472 466.393 254.824C466.196 255.176 466.097 255.568 466.097 256C466.097 256.432 466.199 256.824 466.401 257.176C466.604 257.528 466.873 257.808 467.209 258.016C467.551 258.224 467.924 258.328 468.329 258.328ZM476.515 260.144C476.099 260.117 475.697 260.035 475.307 259.896C474.923 259.752 474.582 259.557 474.283 259.312C473.985 259.067 473.755 258.773 473.595 258.432L475.243 257.728C475.307 257.835 475.411 257.949 475.555 258.072C475.699 258.189 475.87 258.288 476.067 258.368C476.27 258.448 476.491 258.488 476.731 258.488C476.934 258.488 477.126 258.461 477.307 258.408C477.494 258.349 477.643 258.261 477.755 258.144C477.873 258.027 477.931 257.875 477.931 257.688C477.931 257.491 477.862 257.339 477.723 257.232C477.59 257.12 477.419 257.037 477.211 256.984C477.009 256.925 476.811 256.872 476.619 256.824C476.113 256.723 475.641 256.565 475.203 256.352C474.771 256.139 474.422 255.864 474.155 255.528C473.894 255.187 473.763 254.776 473.763 254.296C473.763 253.768 473.902 253.312 474.179 252.928C474.462 252.544 474.827 252.248 475.275 252.04C475.729 251.832 476.217 251.728 476.739 251.728C477.374 251.728 477.955 251.861 478.483 252.128C479.017 252.389 479.438 252.76 479.747 253.24L478.203 254.152C478.129 254.024 478.025 253.907 477.891 253.8C477.758 253.688 477.606 253.597 477.435 253.528C477.265 253.453 477.086 253.411 476.899 253.4C476.659 253.389 476.441 253.411 476.243 253.464C476.046 253.517 475.886 253.608 475.763 253.736C475.646 253.864 475.587 254.035 475.587 254.248C475.587 254.451 475.667 254.603 475.827 254.704C475.987 254.8 476.179 254.875 476.403 254.928C476.633 254.981 476.851 255.04 477.059 255.104C477.529 255.259 477.969 255.448 478.379 255.672C478.795 255.896 479.129 256.171 479.379 256.496C479.63 256.821 479.75 257.211 479.739 257.664C479.739 258.181 479.585 258.635 479.275 259.024C478.966 259.408 478.566 259.701 478.075 259.904C477.59 260.107 477.07 260.187 476.515 260.144ZM480.921 252H482.873V260H480.921V252ZM481.913 250.968C481.625 250.968 481.382 250.875 481.185 250.688C480.988 250.496 480.889 250.256 480.889 249.968C480.889 249.685 480.988 249.448 481.185 249.256C481.382 249.064 481.622 248.968 481.905 248.968C482.188 248.968 482.425 249.064 482.617 249.256C482.814 249.448 482.913 249.685 482.913 249.968C482.913 250.256 482.817 250.496 482.625 250.688C482.433 250.875 482.196 250.968 481.913 250.968ZM489.568 257.592L491.328 258.544C490.96 259.045 490.499 259.448 489.944 259.752C489.39 260.056 488.784 260.208 488.128 260.208C487.392 260.208 486.72 260.019 486.112 259.64C485.51 259.261 485.027 258.755 484.664 258.12C484.307 257.48 484.128 256.773 484.128 256C484.128 255.413 484.232 254.867 484.44 254.36C484.648 253.848 484.934 253.4 485.296 253.016C485.664 252.627 486.091 252.323 486.576 252.104C487.062 251.885 487.579 251.776 488.128 251.776C488.784 251.776 489.39 251.928 489.944 252.232C490.499 252.536 490.96 252.944 491.328 253.456L489.568 254.4C489.382 254.187 489.16 254.021 488.904 253.904C488.654 253.787 488.395 253.728 488.128 253.728C487.744 253.728 487.398 253.835 487.088 254.048C486.779 254.256 486.534 254.533 486.352 254.88C486.171 255.221 486.08 255.595 486.08 256C486.08 256.4 486.171 256.773 486.352 257.12C486.534 257.461 486.779 257.736 487.088 257.944C487.398 258.152 487.744 258.256 488.128 258.256C488.406 258.256 488.67 258.197 488.92 258.08C489.171 257.957 489.387 257.795 489.568 257.592ZM496.608 260V248.8H500.608C501.216 248.8 501.766 248.952 502.256 249.256C502.752 249.56 503.144 249.968 503.432 250.48C503.72 250.992 503.864 251.555 503.864 252.168C503.864 252.797 503.715 253.368 503.416 253.88C503.123 254.387 502.728 254.792 502.232 255.096C501.736 255.395 501.195 255.544 500.608 255.544H498.56V260H496.608ZM498.56 253.592H500.4C500.678 253.592 500.931 253.523 501.16 253.384C501.39 253.245 501.571 253.059 501.704 252.824C501.843 252.589 501.912 252.328 501.912 252.04C501.912 251.747 501.843 251.483 501.704 251.248C501.571 251.013 501.39 250.827 501.16 250.688C500.931 250.549 500.678 250.48 500.4 250.48H498.56V253.592ZM505.116 260L505.108 252H507.06L507.068 252.712C507.34 252.424 507.666 252.197 508.044 252.032C508.423 251.861 508.831 251.776 509.268 251.776C509.562 251.776 509.855 251.819 510.148 251.904L509.38 253.872C509.178 253.792 508.975 253.752 508.772 253.752C508.458 253.752 508.17 253.829 507.908 253.984C507.652 254.133 507.447 254.339 507.292 254.6C507.143 254.856 507.068 255.141 507.068 255.456V260H505.116ZM511.015 252H512.967V260H511.015V252ZM512.007 250.968C511.719 250.968 511.476 250.875 511.279 250.688C511.081 250.496 510.983 250.256 510.983 249.968C510.983 249.685 511.081 249.448 511.279 249.256C511.476 249.064 511.716 248.968 511.999 248.968C512.281 248.968 512.519 249.064 512.711 249.256C512.908 249.448 513.007 249.685 513.007 249.968C513.007 250.256 512.911 250.496 512.719 250.688C512.527 250.875 512.289 250.968 512.007 250.968ZM522.155 254.944V260H520.203V255.456C520.203 255.141 520.126 254.856 519.971 254.6C519.817 254.339 519.609 254.133 519.347 253.984C519.091 253.829 518.806 253.752 518.491 253.752C518.177 253.752 517.889 253.829 517.627 253.984C517.371 254.133 517.166 254.339 517.011 254.6C516.862 254.856 516.787 255.141 516.787 255.456V260H514.835L514.827 252H516.779L516.787 252.712C517.059 252.424 517.385 252.197 517.763 252.032C518.142 251.861 518.55 251.776 518.987 251.776C519.569 251.776 520.099 251.92 520.579 252.208C521.059 252.491 521.441 252.872 521.723 253.352C522.011 253.827 522.155 254.357 522.155 254.944ZM528.553 257.592L530.313 258.544C529.945 259.045 529.483 259.448 528.929 259.752C528.374 260.056 527.769 260.208 527.113 260.208C526.377 260.208 525.705 260.019 525.097 259.64C524.494 259.261 524.011 258.755 523.649 258.12C523.291 257.48 523.113 256.773 523.113 256C523.113 255.413 523.217 254.867 523.425 254.36C523.633 253.848 523.918 253.4 524.281 253.016C524.649 252.627 525.075 252.323 525.561 252.104C526.046 251.885 526.563 251.776 527.113 251.776C527.769 251.776 528.374 251.928 528.929 252.232C529.483 252.536 529.945 252.944 530.313 253.456L528.553 254.4C528.366 254.187 528.145 254.021 527.889 253.904C527.638 253.787 527.379 253.728 527.113 253.728C526.729 253.728 526.382 253.835 526.073 254.048C525.763 254.256 525.518 254.533 525.337 254.88C525.155 255.221 525.065 255.595 525.065 256C525.065 256.4 525.155 256.773 525.337 257.12C525.518 257.461 525.763 257.736 526.073 257.944C526.382 258.152 526.729 258.256 527.113 258.256C527.39 258.256 527.654 258.197 527.905 258.08C528.155 257.957 528.371 257.795 528.553 257.592ZM531.437 252H533.389V260H531.437V252ZM532.429 250.968C532.141 250.968 531.898 250.875 531.701 250.688C531.503 250.496 531.405 250.256 531.405 249.968C531.405 249.685 531.503 249.448 531.701 249.256C531.898 249.064 532.138 248.968 532.421 248.968C532.703 248.968 532.941 249.064 533.133 249.256C533.33 249.448 533.429 249.685 533.429 249.968C533.429 250.256 533.333 250.496 533.141 250.688C532.949 250.875 532.711 250.968 532.429 250.968ZM537.139 264H535.187V252H537.139V253.016C537.4 252.653 537.72 252.36 538.099 252.136C538.483 251.907 538.931 251.792 539.443 251.792C540.029 251.792 540.576 251.901 541.083 252.12C541.589 252.339 542.035 252.643 542.419 253.032C542.808 253.416 543.109 253.861 543.323 254.368C543.541 254.875 543.651 255.419 543.651 256C543.651 256.581 543.541 257.128 543.323 257.64C543.109 258.152 542.808 258.603 542.419 258.992C542.035 259.376 541.589 259.677 541.083 259.896C540.576 260.115 540.029 260.224 539.443 260.224C538.931 260.224 538.483 260.112 538.099 259.888C537.72 259.659 537.4 259.363 537.139 259V264ZM539.419 253.672C539.013 253.672 538.651 253.779 538.331 253.992C538.011 254.2 537.76 254.48 537.579 254.832C537.397 255.184 537.307 255.573 537.307 256C537.307 256.427 537.397 256.819 537.579 257.176C537.76 257.528 538.011 257.811 538.331 258.024C538.651 258.232 539.013 258.336 539.419 258.336C539.829 258.336 540.205 258.232 540.547 258.024C540.888 257.816 541.16 257.536 541.363 257.184C541.565 256.827 541.667 256.432 541.667 256C541.667 255.573 541.565 255.184 541.363 254.832C541.16 254.48 540.888 254.2 540.547 253.992C540.211 253.779 539.835 253.672 539.419 253.672ZM544.78 260V248H546.732V260H544.78ZM552.05 260.208C551.314 260.208 550.642 260.019 550.034 259.64C549.432 259.261 548.949 258.752 548.586 258.112C548.229 257.472 548.05 256.765 548.05 255.992C548.05 255.411 548.154 254.867 548.362 254.36C548.57 253.848 548.856 253.4 549.218 253.016C549.586 252.627 550.013 252.323 550.498 252.104C550.984 251.885 551.501 251.776 552.05 251.776C552.674 251.776 553.245 251.909 553.762 252.176C554.285 252.437 554.728 252.797 555.09 253.256C555.453 253.715 555.717 254.237 555.882 254.824C556.048 255.411 556.085 256.024 555.994 256.664H550.146C550.221 256.963 550.344 257.232 550.514 257.472C550.685 257.707 550.901 257.896 551.162 258.04C551.424 258.179 551.72 258.251 552.05 258.256C552.392 258.261 552.701 258.181 552.978 258.016C553.261 257.845 553.496 257.616 553.682 257.328L555.674 257.792C555.349 258.501 554.864 259.083 554.218 259.536C553.573 259.984 552.85 260.208 552.05 260.208ZM550.082 255.2H554.018C553.96 254.88 553.834 254.592 553.642 254.336C553.456 254.075 553.224 253.867 552.946 253.712C552.669 253.557 552.37 253.48 552.05 253.48C551.73 253.48 551.434 253.557 551.162 253.712C550.89 253.861 550.658 254.067 550.466 254.328C550.28 254.584 550.152 254.875 550.082 255.2ZM559.718 260.144C559.302 260.117 558.9 260.035 558.51 259.896C558.126 259.752 557.785 259.557 557.486 259.312C557.188 259.067 556.958 258.773 556.798 258.432L558.446 257.728C558.51 257.835 558.614 257.949 558.758 258.072C558.902 258.189 559.073 258.288 559.27 258.368C559.473 258.448 559.694 258.488 559.934 258.488C560.137 258.488 560.329 258.461 560.51 258.408C560.697 258.349 560.846 258.261 560.958 258.144C561.076 258.027 561.134 257.875 561.134 257.688C561.134 257.491 561.065 257.339 560.926 257.232C560.793 257.12 560.622 257.037 560.414 256.984C560.212 256.925 560.014 256.872 559.822 256.824C559.316 256.723 558.844 256.565 558.406 256.352C557.974 256.139 557.625 255.864 557.358 255.528C557.097 255.187 556.966 254.776 556.966 254.296C556.966 253.768 557.105 253.312 557.382 252.928C557.665 252.544 558.03 252.248 558.478 252.04C558.932 251.832 559.42 251.728 559.942 251.728C560.577 251.728 561.158 251.861 561.686 252.128C562.22 252.389 562.641 252.76 562.95 253.24L561.406 254.152C561.332 254.024 561.228 253.907 561.094 253.8C560.961 253.688 560.809 253.597 560.638 253.528C560.468 253.453 560.289 253.411 560.102 253.4C559.862 253.389 559.644 253.411 559.446 253.464C559.249 253.517 559.089 253.608 558.966 253.736C558.849 253.864 558.79 254.035 558.79 254.248C558.79 254.451 558.87 254.603 559.03 254.704C559.19 254.8 559.382 254.875 559.606 254.928C559.836 254.981 560.054 255.04 560.262 255.104C560.732 255.259 561.172 255.448 561.582 255.672C561.998 255.896 562.332 256.171 562.582 256.496C562.833 256.821 562.953 257.211 562.942 257.664C562.942 258.181 562.788 258.635 562.478 259.024C562.169 259.408 561.769 259.701 561.278 259.904C560.793 260.107 560.273 260.187 559.718 260.144Z" fill="#E6E6E6"/>
<circle cx="508.5" cy="175.5" r="209.5" stroke="#404040" stroke-linecap="round" stroke-dasharray="6 6"/>
<path d="M508.5 450C609.587 450 697.912 395.358 745.549 314M508.5 -99C609.38 -99 697.549 -44.5822 745.256 36.5M765.18 273C774.098 249.537 779.89 224.534 782.05 198.5M782.17 154C780.155 127.981 774.511 102.979 765.745 79.5" stroke="#404040" stroke-linecap="round" stroke-dasharray="6 6"/>
<path d="M510.17 450C409.084 450 320.759 395.358 273.121 314M510.17 -99C409.291 -99 321.121 -44.5822 273.415 36.5M253.49 273C244.573 249.537 238.78 224.534 236.62 198.5M236.5 154C238.516 127.981 244.159 102.979 252.925 79.5" stroke="#404040" stroke-linecap="round" stroke-dasharray="6 6"/>
<g opacity="0.75">
<rect x="741" y="43" width="32" height="32" rx="14" fill="#1FD6FF" fill-opacity="0.1"/>
<path opacity="0.6" d="M757 67.332L757 59.832M757 50.6654L757 53.1654" stroke="#00C1EC" stroke-width="1.25" stroke-linecap="round"/>
<path opacity="0.6" d="M762.833 67.332L762.833 63.1654M762.833 50.6654L762.833 58.1654" stroke="#00C1EC" stroke-width="1.25" stroke-linecap="round"/>
<path opacity="0.6" d="M751.167 67.332L751.167 64.832M751.167 50.6654L751.167 59.832" stroke="#00C1EC" stroke-width="1.25" stroke-linecap="round"/>
<path d="M752.482 64.1379C752.442 64.3447 752.289 64.5113 752.087 64.5692L751.859 64.6342C751.406 64.7635 750.927 64.7635 750.474 64.6342L750.247 64.5692C750.044 64.5113 749.891 64.3447 749.851 64.1379L749.845 64.1046C749.617 62.9342 749.62 61.7305 749.854 60.5613V60.5613C749.893 60.368 750.032 60.2102 750.219 60.1479L750.41 60.0841C750.901 59.9205 751.432 59.9205 751.923 60.0841L752.114 60.1479C752.301 60.2102 752.441 60.368 752.479 60.5613V60.5613C752.713 61.7305 752.716 62.9342 752.489 64.1046L752.482 64.1379Z" stroke="#00C1EC" stroke-width="1.25"/>
<path d="M758.333 58.8819C758.283 59.2425 758.024 59.5394 757.674 59.6394V59.6394C757.234 59.7653 756.766 59.7653 756.326 59.6394V59.6394C755.976 59.5394 755.717 59.2425 755.667 58.882L755.657 58.8104C755.442 57.2769 755.444 55.7208 755.663 54.1879L755.674 54.117C755.72 53.7891 755.948 53.5159 756.263 53.4111V53.4111C756.741 53.2516 757.259 53.2516 757.737 53.4111V53.4111C758.052 53.5159 758.28 53.7891 758.326 54.117L758.337 54.1879C758.556 55.7208 758.558 57.2769 758.343 58.8104L758.333 58.8819Z" stroke="#00C1EC" stroke-width="1.25"/>
<path d="M764.194 62.2416C764.126 62.5909 763.868 62.8724 763.526 62.9701V62.9701C763.073 63.0994 762.593 63.0994 762.141 62.9701V62.9701C761.799 62.8724 761.541 62.5909 761.473 62.2417L761.359 61.6571C761.232 61.004 761.234 60.3323 761.364 59.6799L761.481 59.095C761.544 58.7794 761.772 58.5218 762.077 58.4201V58.4201C762.568 58.2564 763.099 58.2564 763.59 58.4201V58.4201C763.895 58.5218 764.122 58.7794 764.185 59.095L764.302 59.6799C764.433 60.3323 764.435 61.004 764.308 61.6571L764.194 62.2416Z" stroke="#00C1EC" stroke-width="1.25"/>
</g>
<g opacity="0.75">
<rect x="741" y="277" width="32" height="32" rx="14" fill="#1FD6FF" fill-opacity="0.1"/>
<path d="M761.044 292.517L761.566 292.094C761.947 291.786 762.095 291.274 761.938 290.811C761.815 290.445 761.62 290.108 761.365 289.818C761.042 289.45 760.524 289.323 760.068 289.498L759.441 289.74L759.375 289.765C759.043 289.894 758.671 289.688 758.616 289.336L758.499 288.593C758.422 288.11 758.053 287.725 757.573 287.629C757.195 287.553 756.805 287.553 756.427 287.629C755.947 287.725 755.578 288.11 755.502 288.593L755.384 289.336C755.329 289.688 754.958 289.894 754.625 289.765L754.559 289.74L753.932 289.498C753.476 289.323 752.958 289.45 752.635 289.818C752.38 290.108 752.185 290.445 752.062 290.811C751.905 291.274 752.053 291.786 752.434 292.094L752.956 292.517L753.002 292.554C753.286 292.782 753.286 293.218 753.002 293.446L752.956 293.483L752.434 293.906C752.054 294.214 751.905 294.726 752.062 295.189C752.185 295.555 752.38 295.892 752.635 296.182C752.958 296.549 753.476 296.677 753.932 296.501L754.56 296.26L754.625 296.235C754.958 296.106 755.329 296.312 755.384 296.664L755.502 297.408C755.578 297.891 755.947 298.276 756.427 298.372C756.805 298.447 757.195 298.447 757.573 298.372C758.053 298.276 758.422 297.891 758.499 297.408L758.616 296.664C758.672 296.312 759.043 296.106 759.375 296.235L759.44 296.26L760.068 296.501C760.524 296.677 761.042 296.549 761.365 296.182C761.62 295.892 761.815 295.555 761.938 295.189C762.095 294.726 761.946 294.214 761.566 293.906L761.044 293.483L760.998 293.446C760.714 293.218 760.714 292.782 760.998 292.554L761.044 292.517Z" stroke="#00C1EC" stroke-width="1.25"/>
<path opacity="0.6" d="M763.667 287.999L763.667 289.666C763.667 290.586 762.92 291.333 762 291.333M763.667 297.999L763.667 296.333C763.667 295.412 762.92 294.666 762 294.666M763.667 297.999C764.587 297.999 765.333 298.746 765.333 299.666C765.333 300.587 764.587 301.333 763.667 301.333C762.746 301.333 762 300.587 762 299.666C762 298.746 762.746 297.999 763.667 297.999ZM750.333 297.999L750.333 296.333C750.333 295.412 751.079 294.666 752 294.666M750.333 297.999C751.254 297.999 752 298.746 752 299.666C752 300.587 751.254 301.333 750.333 301.333C749.413 301.333 748.667 300.587 748.667 299.666C748.667 298.746 749.413 297.999 750.333 297.999ZM750.333 287.999L750.333 289.666C750.333 290.586 751.079 291.333 752 291.333M750.333 287.999C749.413 287.999 748.667 287.253 748.667 286.333C748.667 285.412 749.413 284.666 750.333 284.666C751.254 284.666 752 285.412 752 286.333C752 287.253 751.254 287.999 750.333 287.999ZM763.667 287.999V287.999C764.587 287.999 765.333 287.253 765.333 286.333V286.333C765.333 285.412 764.587 284.666 763.667 284.666V284.666C762.746 284.666 762 285.412 762 286.333V286.333C762 287.253 762.746 287.999 763.667 287.999Z" stroke="#00C1EC" stroke-width="1.25" stroke-linecap="round" stroke-linejoin="round"/>
</g>
<g opacity="0.75">
<rect x="767" y="160" width="32" height="32" rx="14" fill="#F174DB" fill-opacity="0.1"/>
<path d="M775.808 173.226C776.116 170.454 778.325 168.25 781.092 167.904V167.904C782.348 167.747 783.652 167.747 784.908 167.904V167.904C787.675 168.25 789.884 170.454 790.192 173.226V173.226C790.397 175.069 790.397 176.93 790.192 178.773V178.773C789.884 181.545 787.675 183.748 784.908 184.094V184.094C783.652 184.251 782.348 184.251 781.092 184.094V184.094C778.325 183.748 776.116 181.545 775.808 178.773V178.773C775.603 176.93 775.603 175.069 775.808 173.226V173.226Z" stroke="#EC44CE" stroke-width="1.25"/>
<path opacity="0.6" d="M785.5 174.332L787.118 175.95C787.145 175.977 787.145 176.021 787.118 176.048L785.5 177.665" stroke="#EC44CE" stroke-width="1.25" stroke-linecap="round"/>
<path opacity="0.6" d="M780.5 174.332L778.882 175.95C778.855 175.977 778.855 176.021 778.882 176.048L780.5 177.665" stroke="#EC44CE" stroke-width="1.25" stroke-linecap="round"/>
<path opacity="0.6" d="M782.167 179.333L783.833 172.666" stroke="#EC44CE" stroke-width="1.25" stroke-linecap="round"/>
</g>
<g opacity="0.75">
<rect width="32" height="32" rx="14" transform="matrix(-1 0 0 1 279 43)" fill="#C68AFA" fill-opacity="0.1"/>
<path d="M269.655 55.531C270.445 55.3993 271.065 54.7801 271.196 53.9899V53.9899C271.287 53.4457 271.287 52.8902 271.196 52.3461V52.3461C271.065 51.5559 270.445 50.9367 269.655 50.805V50.805C269.111 50.7143 268.556 50.7143 268.011 50.805V50.805C267.221 50.9367 266.602 51.5559 266.47 52.3461V52.3461C266.38 52.8902 266.38 53.4457 266.47 53.9899V53.9899C266.602 54.7801 267.221 55.3993 268.011 55.531V55.531C268.556 55.6217 269.111 55.6217 269.655 55.531V55.531Z" stroke="#AD58F8" stroke-width="1.25"/>
<path d="M269.655 67.195C270.445 67.0633 271.065 66.4441 271.196 65.6539V65.6539C271.287 65.1098 271.287 64.5543 271.196 64.0101V64.0101C271.065 63.2199 270.445 62.6007 269.655 62.469V62.469C269.111 62.3783 268.556 62.3783 268.011 62.469V62.469C267.221 62.6007 266.602 63.2199 266.47 64.0101V64.0101C266.38 64.5543 266.38 65.1098 266.47 65.6539V65.6539C266.602 66.4441 267.221 67.0633 268.011 67.195V67.195C268.556 67.2857 269.111 67.2857 269.655 67.195V67.195Z" stroke="#AD58F8" stroke-width="1.25"/>
<path d="M257.989 67.195C258.779 67.0633 259.398 66.4441 259.53 65.6539V65.6539C259.62 65.1098 259.62 64.5543 259.53 64.0101V64.0101C259.398 63.2199 258.779 62.6007 257.989 62.469V62.469C257.444 62.3783 256.889 62.3783 256.345 62.469V62.469C255.555 62.6007 254.935 63.2199 254.804 64.0101V64.0101C254.713 64.5543 254.713 65.1098 254.804 65.6539V65.6539C254.935 66.4441 255.555 67.0633 256.345 67.195V67.195C256.889 67.2857 257.444 67.2857 257.989 67.195V67.195Z" stroke="#AD58F8" stroke-width="1.25"/>
<path opacity="0.6" d="M268.833 55.6654L268.833 62.332" stroke="#AD58F8" stroke-width="1.25" stroke-linecap="round"/>
<path opacity="0.6" d="M260.643 50.668L262.411 52.4357C262.736 52.7611 262.736 53.2888 262.411 53.6142L260.643 55.382M262.411 53.025L258.833 53.025C257.913 53.025 257.167 53.7711 257.167 54.6916L257.167 62.3346" stroke="#AD58F8" stroke-width="1.25" stroke-linecap="round"/>
</g>
<g opacity="0.75">
<rect width="32" height="32" rx="14" transform="matrix(-1 0 0 1 279 277)" fill="#C68AFA" fill-opacity="0.1"/>
<path d="M259.775 289.157C259.962 289.72 260.465 290.118 261.056 290.172L262.128 290.269C263.816 290.423 265.515 290.394 267.196 290.184V290.184C267.717 290.119 268.202 289.882 268.573 289.51L269.616 288.467C270.104 287.979 270.104 287.188 269.616 286.699L268.573 285.656C268.202 285.285 267.717 285.048 267.196 284.983V284.983C265.515 284.773 263.816 284.744 262.128 284.897L261.056 284.995C260.465 285.049 259.962 285.447 259.775 286.01V286.01C259.434 287.031 259.434 288.136 259.775 289.157V289.157Z" stroke="#AD58F8" stroke-width="1.25"/>
<path d="M266.225 296.657C266.038 297.22 265.535 297.618 264.944 297.672L263.872 297.769C262.184 297.923 260.485 297.894 258.804 297.684V297.684C258.283 297.619 257.798 297.382 257.427 297.01L256.384 295.967C255.896 295.479 255.896 294.688 256.384 294.199L257.427 293.156C257.798 292.785 258.283 292.548 258.804 292.483V292.483C260.485 292.273 262.184 292.244 263.872 292.397L264.944 292.495C265.535 292.549 266.038 292.947 266.225 293.51V293.51C266.566 294.531 266.566 295.636 266.225 296.657V296.657Z" stroke="#AD58F8" stroke-width="1.25"/>
<path opacity="0.6" d="M265.5 301.334L265.108 301.203C264.424 300.975 263.712 300.861 263 300.861M260.5 301.334L260.892 301.203C261.576 300.975 262.288 300.861 263 300.861M263 298V300.861" stroke="#AD58F8" stroke-width="1.25" stroke-linecap="round"/>
<path opacity="0.6" d="M263 290.5V292.167" stroke="#AD58F8" stroke-width="1.25" stroke-linecap="round"/>
</g>
<g opacity="0.75">
<rect width="32" height="32" rx="14" transform="matrix(-1 0 0 1 250 160)" fill="#F8C386" fill-opacity="0.1"/>
<path d="M229.811 180.889C230.082 182.246 231.06 183.354 232.374 183.792V183.792C233.429 184.144 234.571 184.144 235.626 183.792V183.792C236.94 183.354 237.918 182.246 238.189 180.889L238.295 180.358C238.76 178.032 238.76 175.636 238.295 173.31L238.189 172.779C237.918 171.422 236.94 170.314 235.626 169.876V169.876C234.571 169.524 233.429 169.524 232.374 169.876V169.876C231.06 170.314 230.082 171.422 229.811 172.779L229.705 173.31C229.24 175.636 229.24 178.032 229.705 180.358L229.811 180.889Z" stroke="#F5AB56" stroke-width="1.25"/>
<path opacity="0.6" d="M231.5 169.749L230.667 167.666" stroke="#F5AB56" stroke-width="1.25" stroke-linecap="round"/>
<path opacity="0.6" d="M236.5 169.749L237.333 167.666" stroke="#F5AB56" stroke-width="1.25" stroke-linecap="round"/>
<path opacity="0.6" d="M235.25 174.333L235.667 173.5" stroke="#F5AB56" stroke-width="1.25" stroke-linecap="round"/>
<path opacity="0.6" d="M232.75 174.333L232.333 173.5" stroke="#F5AB56" stroke-width="1.25" stroke-linecap="round"/>
<path opacity="0.6" d="M238.167 172.667L240.667 171.834" stroke="#F5AB56" stroke-width="1.25" stroke-linecap="round"/>
<path opacity="0.6" d="M229.833 172.667L227.333 171.834" stroke="#F5AB56" stroke-width="1.25" stroke-linecap="round"/>
<path opacity="0.6" d="M239 176.834H241.5" stroke="#F5AB56" stroke-width="1.25" stroke-linecap="round"/>
<path opacity="0.6" d="M229 176.834H226.5" stroke="#F5AB56" stroke-width="1.25" stroke-linecap="round"/>
<path opacity="0.6" d="M238.167 181.001L240.667 181.834" stroke="#F5AB56" stroke-width="1.25" stroke-linecap="round"/>
<path opacity="0.6" d="M229.833 181.001L227.333 181.834" stroke="#F5AB56" stroke-width="1.25" stroke-linecap="round"/>
</g>
</g>
<defs>
<clipPath id="clip0_6556_17564">
<rect width="1017" height="350" fill="white"/>
</clipPath>
</defs>
</svg>
