<?xml version="1.0" encoding="UTF-8"?>
<!DOCTYPE svg PUBLIC "-//W3C//DTD SVG 1.1//EN" "http://www.w3.org/Graphics/SVG/1.1/DTD/svg11.dtd">
<!-- Creator: CorelDRAW -->
<svg xmlns="http://www.w3.org/2000/svg" xml:space="preserve" width="0.355902in" height="0.356157in" version="1.1" style="shape-rendering:geometricPrecision; text-rendering:geometricPrecision; image-rendering:optimizeQuality; fill-rule:evenodd; clip-rule:evenodd"
viewBox="0 0 2.87 2.88"
 xmlns:xlink="http://www.w3.org/1999/xlink"
 xmlns:xodm="http://www.corel.com/coreldraw/odm/2003">
 <defs>
  <style type="text/css">
   <![CDATA[
    .fil2 {fill:#0B9C0B}
    .fil0 {fill:#0BA80B}
    .fil1 {fill:#0F910F}
   ]]>
  </style>
 </defs>
 <g id="Layer_x0020_1">
  <metadata id="CorelCorpID_0Corel-Layer"/>
  <g id="_1423370585440">
   <path class="fil0" d="M0.4 1.44c0,-0.23 0.07,-0.43 0.2,-0.61 0.03,-0.04 0.06,-0.07 0.09,-0.11 0.01,-0.01 0.01,-0.01 0.02,-0.02 0.09,-0.09 0.19,-0.16 0.31,-0.21 0.29,-0.13 0.66,-0.12 0.93,0.04 0.03,0.02 0.09,0.05 0.12,0.08 0.06,0.05 0.1,0.08 0.15,0.14l0.07 0.09c0.04,0.05 0.07,0.1 0.09,0.16 0.03,0.06 0.05,0.12 0.06,0.19 0.04,0.15 0.03,0.32 0,0.46 -0.04,0.16 -0.12,0.34 -0.24,0.46 -0.01,0.01 -0.03,0.03 -0.05,0.05 -0.1,0.09 -0.14,0.13 -0.29,0.2 -0.34,0.16 -0.72,0.11 -1.01,-0.09 -0.01,-0.01 -0.01,-0.01 -0.02,-0.01 -0.01,-0 -0.01,-0.01 -0.02,-0.01 -0.01,-0.01 -0.02,-0.02 -0.04,-0.03l-0.07 -0.06c-0.19,-0.19 -0.3,-0.46 -0.3,-0.73zm-0.4 -0.06c0,0.07 -0,0.17 0,0.25l0.02 0.2c0.01,0.05 0.01,0.1 0.02,0.15 0.01,0.05 0.02,0.1 0.03,0.15 0.03,0.13 0.1,0.38 0.16,0.51l0.01 0.01c0.01,0.01 0.1,0.04 0.12,0.05l0.19 0.06c0.02,0.01 0.04,0.01 0.07,0.02 0.13,0.03 0.38,0.09 0.51,0.09l0.12 0.01c0.01,0 0.03,-0 0.05,0 0.14,0.01 0.38,-0 0.52,-0.02 0.23,-0.03 0.48,-0.09 0.69,-0.17 0.03,-0.01 0.12,-0.04 0.13,-0.06l0.01 -0.02c0,-0.01 0.01,-0.02 0.01,-0.03 0.05,-0.1 0.12,-0.35 0.14,-0.46 0.02,-0.12 0.03,-0.18 0.05,-0.29l0.02 -0.15c0,-0.06 0.01,-0.11 0.01,-0.17 0,-0.06 0,-0.14 -0,-0.21 -0,-0.01 0,-0.03 -0,-0.04 -0.01,-0.16 -0.04,-0.33 -0.07,-0.49 -0.01,-0.05 -0.02,-0.09 -0.03,-0.14 -0.01,-0.05 -0.11,-0.36 -0.13,-0.38 -0.01,-0.01 -0.21,-0.08 -0.25,-0.09 -0.11,-0.04 -0.22,-0.07 -0.34,-0.09l-0.22 -0.04c-0.13,-0.02 -0.38,-0.03 -0.53,-0.02l-0.08 0c-0.08,0 -0.3,0.04 -0.38,0.05 -0.03,0 -0.05,0.01 -0.07,0.01 -0.09,0.02 -0.18,0.04 -0.27,0.07 -0.03,0.01 -0.24,0.08 -0.25,0.09 -0.01,0.01 -0.04,0.11 -0.05,0.12 -0.09,0.25 -0.13,0.42 -0.17,0.69 -0,0.02 -0.01,0.05 -0.01,0.07 -0,0.03 -0.01,0.05 -0.01,0.08 -0,0.06 -0.01,0.11 -0.01,0.17z"/>
   <path class="fil1" d="M1.38 1.12c0,0.05 0.02,0.03 0.04,0.06 0.02,0.02 0,0.22 0,0.26 0,0.03 0,0.06 -0,0.09 -0,0.03 0,0.06 -0,0.09 -0,0.02 -0,0.07 -0.01,0.08 -0.02,0.03 -0.04,0.01 -0.04,0.06 0,0.01 0.01,0.03 0.02,0.03 0.02,0.01 0.11,0.01 0.14,0.01 0.04,0 0.05,-0.01 0.05,-0.05 0,-0.04 -0.04,-0.03 -0.05,-0.06 -0.01,-0.02 0,-0.13 0,-0.16 0,-0.02 -0,-0.04 0,-0.06 0,-0.02 0,-0.03 0,-0.05 -0,-0.02 0,-0.04 0,-0.06l0.04 0.1c0.01,0.04 0.03,0.07 0.04,0.11 0.02,0.05 0.04,0.12 0.08,0.15 0.03,0.03 0.09,0.03 0.12,0.01 0.02,-0.01 0.02,-0.02 0.03,-0.05l0.12 -0.32c0,-0 0,-0 0,-0.01 0,-0.01 0,-0 0,-0.01 0,0.02 0,0.03 0,0.06 -0,0.02 -0,0.04 0,0.06 0,0.03 0.01,0.21 0.01,0.23 -0.01,0.04 -0.05,0.02 -0.05,0.07 0,0.03 0.02,0.04 0.05,0.04l0.27 0c0.03,0 0.05,-0.02 0.05,-0.05 0,-0.05 -0.05,-0.02 -0.05,-0.08l-0.01 -0.18c0,-0.06 -0.01,-0.16 -0.01,-0.23 0,-0.03 -0.01,-0.06 0.01,-0.08 0.02,-0.02 0.04,-0.01 0.04,-0.06 0,-0.02 -0.02,-0.04 -0.05,-0.04l-0.21 0c-0.08,0 -0.08,0.05 -0.11,0.15 -0.01,0.03 -0.02,0.06 -0.03,0.1l-0.03 0.1c-0.01,-0.01 -0.07,-0.18 -0.07,-0.2 -0.04,-0.12 -0.03,-0.16 -0.12,-0.16 -0.04,0 -0.23,-0.01 -0.26,0.01 -0.01,0.01 -0.02,0.02 -0.02,0.03z"/>
   <path class="fil2" d="M0.93 1.69c-0.04,0 -0.05,-0.02 -0.05,-0.07 0,-0.05 -0.01,-0.16 -0,-0.21l0.01 -0.2c0,-0.07 0.12,-0.03 0.18,0.06 0.09,0.15 0.02,0.42 -0.13,0.42zm-0.36 -0.57c0,0.05 0.05,0.03 0.05,0.07l0 0.47c0,0.04 -0.05,0.03 -0.05,0.08 0,0.03 0.02,0.05 0.05,0.05 0.12,0 0.38,0.01 0.49,-0.02 0.07,-0.02 0.11,-0.03 0.16,-0.07 0.11,-0.1 0.14,-0.26 0.1,-0.4 -0.02,-0.07 -0.07,-0.13 -0.13,-0.17 -0.14,-0.09 -0.38,-0.04 -0.55,-0.06 -0.04,-0 -0.11,-0.01 -0.11,0.04z"/>
  </g>
 </g>
</svg>
