<svg width="108" height="32" viewBox="0 0 108 32" fill="none" xmlns="http://www.w3.org/2000/svg">
<path d="M46.8854 16.158H50.1154V22.4833C48.3658 23.7619 45.7078 24.6366 43.4199 24.6366C38.4405 24.6366 34.6385 21.0029 34.6385 16.2253C34.6385 11.4813 38.5077 7.84766 43.6218 7.84766C46.0779 7.84766 48.5677 8.78972 50.2499 10.2365L48.1639 12.8944C46.9527 11.7505 45.2368 11.044 43.6555 11.044C40.7283 11.044 38.4741 13.2982 38.4741 16.1917C38.4741 19.1188 40.762 21.3394 43.6891 21.3394C44.6648 21.3394 45.8424 21.0029 46.9191 20.431V16.158H46.8854Z" fill="#4D4D4D"/>
<path d="M69.8988 16.2253C69.8988 20.9693 66.0969 24.6366 61.0501 24.6366C56.0033 24.6366 52.2014 21.0029 52.2014 16.2253C52.2014 11.4141 56.0033 7.84766 61.0501 7.84766C66.0969 7.84766 69.8988 11.4477 69.8988 16.2253ZM56.0033 16.2253C56.0033 19.1188 58.3249 21.373 61.0838 21.373C63.8427 21.373 66.0633 19.1188 66.0633 16.2253C66.0633 13.3318 63.809 11.1112 61.0838 11.1112C58.2912 11.1449 56.0033 13.3318 56.0033 16.2253Z" fill="#4D4D4D"/>
<path d="M82.9867 16.158H86.2166V22.4833C84.4671 23.7619 81.8091 24.6366 79.5212 24.6366C74.5417 24.6366 70.7398 21.0029 70.7398 16.2253C70.7398 11.4813 74.609 7.84766 79.7231 7.84766C82.1792 7.84766 84.6689 8.78972 86.3512 10.2365L84.2652 12.8944C83.054 11.7505 81.3381 11.044 79.7567 11.044C76.8296 11.044 74.5754 13.2982 74.5754 16.1917C74.5754 19.1188 76.8633 21.3394 79.7904 21.3394C80.7661 21.3394 81.9437 21.0029 83.0203 20.431V16.158H82.9867Z" fill="#4D4D4D"/>
<path d="M106 16.2253C106 20.9693 102.198 24.6366 97.1514 24.6366C92.1046 24.6366 88.3027 21.0029 88.3027 16.2253C88.3027 11.4141 92.1046 7.84766 97.1514 7.84766C102.198 7.84766 106 11.4477 106 16.2253ZM92.1046 16.2253C92.1046 19.1188 94.4261 21.373 97.1851 21.373C99.944 21.373 102.165 19.1188 102.165 16.2253C102.165 13.3318 99.9103 11.1112 97.1851 11.1112C94.3925 11.1449 92.1046 13.3318 92.1046 16.2253Z" fill="#4D4D4D"/>
<path d="M22.2914 8.82483C26.8292 12.4729 26.8292 19.3825 22.2914 23.0306L20.9165 24.136C17.2321 27.0979 13.1102 29.4699 8.69803 31.167C3.79 33.0549 -1.17155 28.5403 0.245982 23.4764L1.47385 19.09C2.05285 17.0216 2.05285 14.8339 1.47385 12.7655L0.245983 8.37912C-1.17155 3.31518 3.79 -1.19942 8.69803 0.688463C13.1102 2.38561 17.2321 4.75755 20.9165 7.71951L22.2914 8.82483Z" fill="url(#paint0_linear_8397_15658)"/>
<defs>
<linearGradient id="paint0_linear_8397_15658" x1="12.8474" y1="0.25" x2="12.8474" y2="31.6055" gradientUnits="userSpaceOnUse">
<stop stop-color="#CC3DBE"/>
<stop offset="1" stop-color="#A82C9C"/>
</linearGradient>
</defs>
</svg>
